<svg width="46" height="46" fill="none" xmlns="http://www.w3.org/2000/svg"><rect width="46" height="46" rx="4" fill="#181819"/><path d="M28.523 26.295c-.551 0-1-.443-1-.986a.994.994 0 011-.986c.551 0 1 .442 1 .986a.994.994 0 01-1 .986zm-11.046 0c-.551 0-1-.443-1-.986a.993.993 0 011-.986c.551 0 1 .442 1 .986a.994.994 0 01-1 .986zm11.404-5.936l1.998-3.411a.405.405 0 00-.152-.56.422.422 0 00-.568.15l-2.022 3.454A12.48 12.48 0 0023 18.908c-1.853 0-3.59.388-5.137 1.084l-2.022-3.454a.422.422 0 00-.568-.15.405.405 0 00-.152.56l1.998 3.41A11.62 11.62 0 0011 29.668h24a11.622 11.622 0 00-6.119-9.309" fill="#029DFA"/></svg>