<svg width="46" height="46" fill="none" xmlns="http://www.w3.org/2000/svg"><rect width="46" height="46" rx="4" fill="#181819"/><path d="M29.55 23.75c.034 3.632 3.186 4.841 3.221 4.857-.027.085-.504 1.722-1.66 3.413-1.001 1.462-2.04 2.919-3.675 2.949-1.607.03-2.124-.953-3.96-.953-1.837 0-2.412.923-3.933.982-1.578.06-2.78-1.58-3.79-3.037-2.06-2.98-3.635-8.42-1.52-12.092 1.05-1.824 2.928-2.979 4.966-3.008 1.55-.03 3.013 1.043 3.96 1.043.948 0 2.726-1.29 4.595-1.1.782.032 2.98.315 4.39 2.38-.114.07-2.621 1.53-2.594 4.566zm-3.02-8.918c.838-1.014 1.402-2.427 1.248-3.832-1.208.049-2.669.805-3.535 1.819-.777.898-1.457 2.335-1.274 3.712 1.347.105 2.723-.684 3.56-1.699z" fill="#029DFA"/></svg>