<svg width="1116" height="20" fill="none" xmlns="http://www.w3.org/2000/svg"><path class="path" d="M8.531 3.5l5.719 5.969c.125.156.219.344.219.531a.738.738 0 01-.219.5l-5.719 5.969a.746.746 0 01-1.062.031c-.313-.281-.313-.75-.032-1.063l5.25-5.468-5.25-5.438A.746.746 0 017.47 3.47a.746.746 0 011.06.03zm28.103 0l5.718 5.969c.126.156.22.344.22.531a.738.738 0 01-.22.5l-5.718 5.969a.746.746 0 01-1.063.031c-.312-.281-.312-.75-.031-1.063l5.25-5.468-5.25-5.438a.746.746 0 01.031-1.062.746.746 0 011.063.031zm28.102 0l5.72 5.969c.124.156.218.344.218.531a.738.738 0 01-.219.5l-5.719 5.969a.746.746 0 01-1.062.031c-.313-.281-.313-.75-.031-1.063l5.25-5.468-5.25-5.438a.746.746 0 01.03-1.062.746.746 0 011.063.031zm28.103 0l5.719 5.969c.125.156.218.344.218.531a.737.737 0 01-.218.5l-5.72 5.969a.746.746 0 01-1.062.031c-.312-.281-.312-.75-.03-1.063l5.25-5.468-5.25-5.438a.746.746 0 01.03-1.062.746.746 0 011.063.031zm28.103 0l5.718 5.969c.125.156.219.344.219.531a.738.738 0 01-.219.5l-5.718 5.969a.747.747 0 01-1.063.031c-.312-.281-.312-.75-.031-1.063l5.25-5.468-5.25-5.438a.746.746 0 01.031-1.062.746.746 0 011.063.031zm28.102 0l5.719 5.969c.125.156.219.344.219.531a.738.738 0 01-.219.5l-5.719 5.969a.745.745 0 01-1.062.031c-.313-.281-.313-.75-.032-1.063l5.25-5.468-5.25-5.438a.746.746 0 01.032-1.062.745.745 0 011.062.031zm28.103 0l5.718 5.969c.125.156.219.344.219.531a.738.738 0 01-.219.5l-5.718 5.969a.747.747 0 01-1.063.031c-.312-.281-.312-.75-.031-1.063l5.25-5.468-5.25-5.438a.746.746 0 01.031-1.062.746.746 0 011.063.031zm28.102 0l5.719 5.969c.125.156.219.344.219.531a.738.738 0 01-.219.5l-5.719 5.969a.745.745 0 01-1.062.031c-.313-.281-.313-.75-.032-1.063l5.25-5.468-5.25-5.438a.746.746 0 01.032-1.062.745.745 0 011.062.031zm28.103 0l5.719 5.969c.125.156.218.344.218.531a.737.737 0 01-.218.5l-5.719 5.969a.747.747 0 01-1.063.031c-.312-.281-.312-.75-.031-1.063l5.25-5.468-5.25-5.438a.746.746 0 01.031-1.062.746.746 0 011.063.031zm28.102 0l5.719 5.969c.125.156.219.344.219.531a.738.738 0 01-.219.5l-5.719 5.969a.745.745 0 01-1.062.031c-.313-.281-.313-.75-.031-1.063l5.25-5.468-5.25-5.438a.745.745 0 01.031-1.062.745.745 0 011.062.031zm28.103 0l5.719 5.969c.125.156.218.344.218.531a.737.737 0 01-.218.5l-5.719 5.969a.747.747 0 01-1.063.031c-.312-.281-.312-.75-.031-1.063l5.25-5.468-5.25-5.438a.746.746 0 01.031-1.062.746.746 0 011.063.031zm28.102 0l5.719 5.969c.125.156.219.344.219.531a.738.738 0 01-.219.5l-5.719 5.969a.745.745 0 01-1.062.031c-.313-.281-.313-.75-.031-1.063l5.25-5.468-5.25-5.438a.745.745 0 01.031-1.062.745.745 0 011.062.031zm28.103 0l5.719 5.969c.125.156.219.344.219.531a.738.738 0 01-.219.5l-5.719 5.969a.745.745 0 01-1.062.031c-.313-.281-.313-.75-.032-1.063l5.25-5.468-5.25-5.438a.746.746 0 01.032-1.062.745.745 0 011.062.031zm28.103 0l5.718 5.969c.125.156.219.344.219.531a.738.738 0 01-.219.5l-5.718 5.969a.747.747 0 01-1.063.031c-.312-.281-.312-.75-.031-1.063l5.25-5.468-5.25-5.438a.746.746 0 01.031-1.062.746.746 0 011.063.031zm28.102 0l5.719 5.969c.125.156.219.344.219.531a.738.738 0 01-.219.5l-5.719 5.969a.745.745 0 01-1.062.031c-.313-.281-.313-.75-.032-1.063l5.25-5.468-5.25-5.438a.746.746 0 01.032-1.062.745.745 0 011.062.031zm28.103 0l5.719 5.969c.125.156.218.344.218.531a.737.737 0 01-.218.5l-5.719 5.969a.747.747 0 01-1.063.031c-.312-.281-.312-.75-.031-1.063l5.25-5.468-5.25-5.438a.746.746 0 01.031-1.062.746.746 0 011.063.031zm28.102 0l5.719 5.969c.125.156.219.344.219.531a.738.738 0 01-.219.5l-5.719 5.969a.745.745 0 01-1.062.031c-.313-.281-.313-.75-.031-1.063l5.25-5.468-5.25-5.438a.745.745 0 01.031-1.062.745.745 0 011.062.031zm28.103 0l5.719 5.969c.125.156.218.344.218.531a.737.737 0 01-.218.5l-5.719 5.969a.747.747 0 01-1.063.031c-.312-.281-.312-.75-.031-1.063l5.25-5.468-5.25-5.438a.746.746 0 01.031-1.062.746.746 0 011.063.031zm28.102 0l5.719 5.969c.125.156.219.344.219.531a.738.738 0 01-.219.5l-5.719 5.969a.745.745 0 01-1.062.031c-.313-.281-.313-.75-.031-1.063l5.25-5.468-5.25-5.438a.745.745 0 01.031-1.062.745.745 0 011.062.031zm28.103 0l5.719 5.969c.125.156.219.344.219.531a.738.738 0 01-.219.5l-5.719 5.969a.745.745 0 01-1.062.031c-.313-.281-.313-.75-.032-1.063l5.25-5.468-5.25-5.438a.746.746 0 01.032-1.062.745.745 0 011.062.031zm28.103 0l5.718 5.969c.125.156.219.344.219.531a.738.738 0 01-.219.5l-5.718 5.969a.747.747 0 01-1.063.031c-.312-.281-.312-.75-.031-1.063l5.25-5.468-5.25-5.438a.746.746 0 01.031-1.062.746.746 0 011.063.031zm28.102 0l5.719 5.969c.125.156.219.344.219.531a.738.738 0 01-.219.5l-5.719 5.969a.745.745 0 01-1.062.031c-.313-.281-.313-.75-.032-1.063l5.25-5.468-5.25-5.438a.746.746 0 01.032-1.062.745.745 0 011.062.031zm28.103 0l5.718 5.969c.125.156.219.344.219.531a.738.738 0 01-.219.5l-5.718 5.969a.747.747 0 01-1.063.031c-.312-.281-.312-.75-.031-1.063l5.25-5.468-5.25-5.438a.746.746 0 01.031-1.062.746.746 0 011.063.031zm28.102 0l5.719 5.969c.125.156.219.344.219.531a.738.738 0 01-.219.5l-5.719 5.969a.745.745 0 01-1.062.031c-.313-.281-.313-.75-.032-1.063l5.25-5.468-5.25-5.438a.746.746 0 01.032-1.062.745.745 0 011.062.031zm28.103 0l5.718 5.969c.125.156.219.344.219.531a.738.738 0 01-.219.5l-5.718 5.969a.747.747 0 01-1.063.031c-.312-.281-.312-.75-.031-1.063l5.25-5.468-5.25-5.438a.746.746 0 01.031-1.062.746.746 0 011.063.031zm28.102 0l5.719 5.969c.125.156.219.344.219.531a.738.738 0 01-.219.5l-5.719 5.969a.745.745 0 01-1.062.031c-.313-.281-.313-.75-.031-1.063l5.25-5.468-5.25-5.438a.745.745 0 01.031-1.062.745.745 0 011.062.031zm28.103 0l5.719 5.969c.125.156.218.344.218.531a.737.737 0 01-.218.5l-5.719 5.969a.747.747 0 01-1.063.031c-.312-.281-.312-.75-.031-1.063l5.25-5.468-5.25-5.438a.746.746 0 01.031-1.062.746.746 0 011.063.031zm28.102 0l5.719 5.969c.125.156.219.344.219.531a.738.738 0 01-.219.5l-5.719 5.969a.745.745 0 01-1.062.031c-.313-.281-.313-.75-.031-1.063l5.25-5.468-5.25-5.438a.745.745 0 01.031-1.062.745.745 0 011.062.031zm28.103 0l5.719 5.969c.125.156.218.344.218.531a.737.737 0 01-.218.5l-5.719 5.969a.747.747 0 01-1.063.031c-.312-.281-.312-.75-.031-1.063l5.25-5.468-5.25-5.438a.746.746 0 01.031-1.062.746.746 0 011.063.031zm28.102 0l5.719 5.969c.125.156.219.344.219.531a.738.738 0 01-.219.5l-5.719 5.969a.745.745 0 01-1.062.031c-.313-.281-.313-.75-.031-1.063l5.25-5.468-5.25-5.438a.745.745 0 01.031-1.062.745.745 0 011.062.031zm28.103 0l5.719 5.969c.125.156.218.344.218.531a.737.737 0 01-.218.5l-5.719 5.969a.747.747 0 01-1.063.031c-.312-.281-.312-.75-.031-1.063l5.25-5.468-5.25-5.438a.746.746 0 01.031-1.062.746.746 0 011.063.031zm28.103 0l5.718 5.969c.125.156.219.344.219.531a.738.738 0 01-.219.5l-5.718 5.969a.747.747 0 01-1.063.031c-.312-.281-.312-.75-.031-1.063l5.25-5.468-5.25-5.438a.746.746 0 01.031-1.062.746.746 0 011.063.031zm28.102 0l5.719 5.969c.125.156.219.344.219.531a.738.738 0 01-.219.5l-5.719 5.969a.745.745 0 01-1.062.031c-.313-.281-.313-.75-.032-1.063l5.25-5.468-5.25-5.438a.746.746 0 01.032-1.062.745.745 0 011.062.031zm28.103 0l5.718 5.969c.125.156.219.344.219.531a.738.738 0 01-.219.5l-5.718 5.969a.747.747 0 01-1.063.031c-.312-.281-.312-.75-.031-1.063l5.25-5.468-5.25-5.438a.746.746 0 01.031-1.062.746.746 0 011.063.031zm28.102 0l5.719 5.969c.125.156.219.344.219.531a.738.738 0 01-.219.5l-5.719 5.969a.745.745 0 01-1.062.031c-.313-.281-.313-.75-.032-1.063l5.25-5.468-5.25-5.438a.746.746 0 01.032-1.062.745.745 0 011.062.031zm28.103 0l5.718 5.969c.125.156.219.344.219.531a.738.738 0 01-.219.5l-5.718 5.969a.747.747 0 01-1.063.031c-.312-.281-.312-.75-.031-1.063l5.25-5.468-5.25-5.438a.746.746 0 01.031-1.062.746.746 0 011.063.031zm28.099 0l5.72 5.969c.13.156.22.344.22.531 0 .188-.09.375-.22.5l-5.72 5.969a.743.743 0 01-1.06.031c-.31-.281-.31-.75-.03-1.063l5.25-5.468-5.25-5.438a.75.75 0 01.03-1.062.743.743 0 011.06.031zm28.11 0l5.71 5.969c.13.156.22.344.22.531 0 .188-.09.375-.22.5l-5.71 5.969a.755.755 0 01-1.07.031c-.31-.281-.31-.75-.03-1.063l5.25-5.468-5.25-5.438a.755.755 0 011.1-1.031zm28.1 0l5.72 5.969c.12.156.22.344.22.531a.76.76 0 01-.22.5l-5.72 5.969a.743.743 0 01-1.06.031c-.32-.281-.32-.75-.04-1.063l5.25-5.468-5.25-5.438a.74.74 0 01.04-1.062.743.743 0 011.06.031zm28.1 0l5.72 5.969c.12.156.22.344.22.531a.76.76 0 01-.22.5l-5.72 5.969a.743.743 0 01-1.06.031c-.31-.281-.31-.75-.03-1.063l5.25-5.468-5.25-5.438a.75.75 0 01.03-1.062.743.743 0 011.06.031z" fill="#029DFA"/><path class="path" d="M8.531 3.5l5.719 5.969c.125.156.219.344.219.531a.738.738 0 01-.219.5l-5.719 5.969a.746.746 0 01-1.062.031c-.313-.281-.313-.75-.032-1.063l5.25-5.468-5.25-5.438A.746.746 0 017.47 3.47a.746.746 0 011.06.03z" fill="#fff"/></svg>