<svg width="16" height="16" fill="none" xmlns="http://www.w3.org/2000/svg"><path d="M3.531 1.5L9.25 7.469c.125.156.219.343.219.531a.737.737 0 01-.219.5l-5.719 5.969a.746.746 0 01-1.062.031c-.313-.281-.313-.75-.031-1.063l5.25-5.468-5.25-5.438a.746.746 0 01.03-1.062.746.746 0 011.063.031z" fill="#029DFA"/><path d="M9.531 1.5l5.719 5.969c.125.156.219.343.219.531a.738.738 0 01-.219.5l-5.719 5.969a.746.746 0 01-1.062.031c-.313-.281-.313-.75-.031-1.063l5.25-5.468-5.25-5.438a.746.746 0 01.03-1.062.746.746 0 011.063.031z" fill="#029DFA"/></svg>