<svg width="261" height="280" fill="none" xmlns="http://www.w3.org/2000/svg"><g opacity=".2" clip-path="url(#clip0_3235_13456)" fill="#029DFA"><path d="M16.5.961a.96.96 0 100-1.922.96.96 0 000 1.922zm17.833 0a.96.96 0 100-1.922.96.96 0 000 1.922zm17.834 0a.96.96 0 100-1.922.96.96 0 000 1.922zM70 .961a.96.96 0 100-1.922.96.96 0 000 1.922zm17.833 0a.96.96 0 100-1.922.96.96 0 000 1.922zm17.834 0a.96.96 0 10-.001-1.921.96.96 0 00.001 1.921zm17.833 0a.96.96 0 100-1.922.96.96 0 000 1.922zm17.833 0a.96.96 0 100-1.922.96.96 0 000 1.922zm17.834 0a.961.961 0 100-1.923.961.961 0 000 1.923zm17.833 0a.96.96 0 100-1.922.96.96 0 000 1.922zm17.833 0a.96.96 0 100-1.922.96.96 0 000 1.922zm17.834 0a.96.96 0 10-.001-1.921.96.96 0 00.001 1.921zm17.833 0a.96.96 0 100-1.922.96.96 0 000 1.922zm17.833 0a.96.96 0 100-1.922.96.96 0 000 1.922zM16.5 18.794a.96.96 0 100-1.921.96.96 0 000 1.921zm17.833 0a.96.96 0 100-1.921.96.96 0 000 1.921zm17.834 0a.96.96 0 100-1.921.96.96 0 000 1.921zm17.833 0a.96.96 0 100-1.921.96.96 0 000 1.921zm17.833 0a.96.96 0 100-1.921.96.96 0 000 1.921zm17.834 0a.96.96 0 10-.001-1.92.96.96 0 00.001 1.92zm17.833 0a.96.96 0 100-1.921.96.96 0 000 1.921zm17.833 0a.96.96 0 100-1.921.96.96 0 000 1.921zm17.834 0a.961.961 0 100-1.923.961.961 0 000 1.923zm17.833 0a.96.96 0 100-1.921.96.96 0 000 1.921zm17.833 0a.96.96 0 100-1.921.96.96 0 000 1.921zm17.834 0a.96.96 0 10-.001-1.92.96.96 0 00.001 1.92zm17.833 0a.96.96 0 100-1.921.96.96 0 000 1.921zm17.833 0a.96.96 0 100-1.921.96.96 0 000 1.921zM16.5 36.628a.96.96 0 100-1.922.96.96 0 000 1.922zm17.833 0a.96.96 0 100-1.922.96.96 0 000 1.922zm17.834 0a.96.96 0 100-1.922.96.96 0 000 1.922zm17.833 0a.96.96 0 100-1.922.96.96 0 000 1.922zm17.833 0a.96.96 0 100-1.922.96.96 0 000 1.922zm17.834 0a.96.96 0 10-.001-1.922.96.96 0 00.001 1.922zm17.833 0a.96.96 0 100-1.922.96.96 0 000 1.922zm17.833 0a.96.96 0 100-1.922.96.96 0 000 1.922zm17.834 0a.961.961 0 100-1.923.961.961 0 000 1.923zm17.833 0a.96.96 0 100-1.922.96.96 0 000 1.922zm17.833 0a.96.96 0 100-1.922.96.96 0 000 1.922zm17.834 0a.96.96 0 10-.001-1.922.96.96 0 00.001 1.922zm17.833 0a.96.96 0 100-1.922.96.96 0 000 1.922zm17.833 0a.96.96 0 100-1.922.96.96 0 000 1.922zM16.5 54.461a.96.96 0 100-1.922.96.96 0 000 1.922zm17.833 0a.96.96 0 100-1.922.96.96 0 000 1.922zm17.834 0a.96.96 0 100-1.922.96.96 0 000 1.922zm17.833 0a.96.96 0 100-1.922.96.96 0 000 1.922zm17.833 0a.96.96 0 100-1.922.96.96 0 000 1.922zm17.834 0a.96.96 0 10-.001-1.921.96.96 0 00.001 1.921zm17.833 0a.96.96 0 100-1.922.96.96 0 000 1.922zm17.833 0a.96.96 0 100-1.922.96.96 0 000 1.922zm17.834 0a.961.961 0 100-1.923.961.961 0 000 1.923zm17.833 0a.96.96 0 100-1.922.96.96 0 000 1.922zm17.833 0a.96.96 0 100-1.922.96.96 0 000 1.922zm17.834 0a.96.96 0 10-.001-1.921.96.96 0 00.001 1.921zm17.833 0a.96.96 0 100-1.922.96.96 0 000 1.922zm17.833 0a.96.96 0 100-1.922.96.96 0 000 1.922zM16.5 72.294a.96.96 0 100-1.921.96.96 0 000 1.921zm17.833 0a.96.96 0 100-1.921.96.96 0 000 1.921zm17.834 0a.96.96 0 100-1.921.96.96 0 000 1.921zm17.833 0a.96.96 0 100-1.921.96.96 0 000 1.921zm17.833 0a.96.96 0 100-1.921.96.96 0 000 1.921zm17.834 0a.96.96 0 10-.001-1.92.96.96 0 00.001 1.92zm17.833 0a.96.96 0 100-1.921.96.96 0 000 1.921zm17.833 0a.96.96 0 100-1.921.96.96 0 000 1.921zm17.834 0a.961.961 0 100-1.923.961.961 0 000 1.923zm17.833 0a.96.96 0 100-1.921.96.96 0 000 1.921zm17.833 0a.96.96 0 100-1.921.96.96 0 000 1.921zm17.834 0a.96.96 0 10-.001-1.92.96.96 0 00.001 1.92zm17.833 0a.96.96 0 100-1.921.96.96 0 000 1.921zm17.833 0a.96.96 0 100-1.921.96.96 0 000 1.921zM16.5 90.128a.96.96 0 100-1.922.96.96 0 000 1.922zm17.833 0a.96.96 0 100-1.922.96.96 0 000 1.922zm17.834 0a.96.96 0 100-1.922.96.96 0 000 1.922zm17.833 0a.96.96 0 100-1.922.96.96 0 000 1.922zm17.833 0a.96.96 0 100-1.922.96.96 0 000 1.922zm17.834 0a.96.96 0 10-.001-1.922.96.96 0 00.001 1.922zm17.833 0a.96.96 0 100-1.922.96.96 0 000 1.922zm17.833 0a.96.96 0 100-1.922.96.96 0 000 1.922zm17.834 0a.961.961 0 100-1.923.961.961 0 000 1.923zm17.833 0a.96.96 0 100-1.922.96.96 0 000 1.922zm17.833 0a.96.96 0 100-1.922.96.96 0 000 1.922zm17.834 0a.96.96 0 10-.001-1.922.96.96 0 00.001 1.922zm17.833 0a.96.96 0 100-1.922.96.96 0 000 1.922zm17.833 0a.96.96 0 100-1.922.96.96 0 000 1.922zM16.5 107.961a.96.96 0 100-1.922.96.96 0 000 1.922zm17.833 0a.96.96 0 100-1.922.96.96 0 000 1.922zm17.834 0a.96.96 0 100-1.922.96.96 0 000 1.922zm17.833 0a.96.96 0 100-1.922.96.96 0 000 1.922zm17.833 0a.96.96 0 100-1.922.96.96 0 000 1.922zm17.834 0a.96.96 0 100-1.92.96.96 0 000 1.92zm17.833 0a.96.96 0 100-1.921.96.96 0 000 1.921zm17.833 0a.96.96 0 100-1.921.96.96 0 000 1.921zm17.834 0a.961.961 0 100-1.923.961.961 0 000 1.923zm17.833 0a.96.96 0 100-1.921.96.96 0 000 1.921zm17.833 0a.96.96 0 100-1.921.96.96 0 000 1.921zm17.834 0a.96.96 0 100-1.92.96.96 0 000 1.92zm17.833 0a.96.96 0 100-1.921.96.96 0 000 1.921zm17.833 0a.96.96 0 100-1.921.96.96 0 000 1.921zM16.5 125.794a.96.96 0 100-1.922.96.96 0 000 1.922zm17.833 0a.96.96 0 100-1.922.96.96 0 000 1.922zm17.834 0a.96.96 0 100-1.922.96.96 0 000 1.922zm17.833 0a.96.96 0 100-1.922.96.96 0 000 1.922zm17.833 0a.96.96 0 100-1.922.96.96 0 000 1.922zm17.834 0a.96.96 0 100-1.92.96.96 0 000 1.92zm17.833 0a.96.96 0 100-1.921.96.96 0 000 1.921zm17.833 0a.96.96 0 100-1.921.96.96 0 000 1.921zm17.834 0a.961.961 0 100-1.923.961.961 0 000 1.923zm17.833 0a.96.96 0 100-1.921.96.96 0 000 1.921zm17.833 0a.96.96 0 100-1.921.96.96 0 000 1.921zm17.834 0a.96.96 0 100-1.92.96.96 0 000 1.92zm17.833 0a.96.96 0 100-1.921.96.96 0 000 1.921zm17.833 0a.96.96 0 100-1.921.96.96 0 000 1.921zM16.5 143.628a.961.961 0 10-.001-1.923.961.961 0 000 1.923zm17.833 0a.961.961 0 100-1.923.961.961 0 000 1.923zm17.834 0a.961.961 0 10-.001-1.923.961.961 0 000 1.923zm17.833 0a.961.961 0 10-.001-1.923.961.961 0 00.001 1.923zm17.833 0a.961.961 0 100-1.923.961.961 0 000 1.923zm17.834 0a.961.961 0 10-.002-1.922.961.961 0 00.002 1.922zm17.833 0a.961.961 0 100-1.923.961.961 0 000 1.923zm17.833 0a.961.961 0 100-1.923.961.961 0 000 1.923zm17.834 0a.962.962 0 10-.002-1.924.962.962 0 00.002 1.924zm17.833 0a.961.961 0 100-1.923.961.961 0 000 1.923zm17.833 0a.961.961 0 100-1.923.961.961 0 000 1.923zm17.834 0a.961.961 0 10-.002-1.922.961.961 0 00.002 1.922zm17.833 0a.961.961 0 100-1.923.961.961 0 000 1.923zm17.833 0a.961.961 0 100-1.923.961.961 0 000 1.923zM16.5 161.461a.96.96 0 100-1.922.96.96 0 000 1.922zm17.833 0a.96.96 0 100-1.922.96.96 0 000 1.922zm17.834 0a.96.96 0 100-1.922.96.96 0 000 1.922zm17.833 0a.96.96 0 100-1.922.96.96 0 000 1.922zm17.833 0a.96.96 0 100-1.922.96.96 0 000 1.922zm17.834 0a.96.96 0 100-1.92.96.96 0 000 1.92zm17.833 0a.96.96 0 100-1.921.96.96 0 000 1.921zm17.833 0a.96.96 0 100-1.921.96.96 0 000 1.921zm17.834 0a.961.961 0 100-1.923.961.961 0 000 1.923zm17.833 0a.96.96 0 100-1.921.96.96 0 000 1.921zm17.833 0a.96.96 0 100-1.921.96.96 0 000 1.921zm17.834 0a.96.96 0 100-1.92.96.96 0 000 1.92zm17.833 0a.96.96 0 100-1.921.96.96 0 000 1.921zm17.833 0a.96.96 0 100-1.921.96.96 0 000 1.921zM16.5 179.294a.96.96 0 100-1.922.96.96 0 000 1.922zm17.833 0a.96.96 0 100-1.922.96.96 0 000 1.922zm17.834 0a.96.96 0 100-1.922.96.96 0 000 1.922zm17.833 0a.96.96 0 100-1.922.96.96 0 000 1.922zm17.833 0a.96.96 0 100-1.922.96.96 0 000 1.922zm17.834 0a.96.96 0 100-1.92.96.96 0 000 1.92zm17.833 0a.96.96 0 100-1.921.96.96 0 000 1.921zm17.833 0a.96.96 0 100-1.921.96.96 0 000 1.921zm17.834 0a.961.961 0 100-1.923.961.961 0 000 1.923zm17.833 0a.96.96 0 100-1.921.96.96 0 000 1.921zm17.833 0a.96.96 0 100-1.921.96.96 0 000 1.921zm17.834 0a.96.96 0 100-1.92.96.96 0 000 1.92zm17.833 0a.96.96 0 100-1.921.96.96 0 000 1.921zm17.833 0a.96.96 0 100-1.921.96.96 0 000 1.921zM16.5 197.128a.961.961 0 10-.001-1.923.961.961 0 000 1.923zm17.833 0a.961.961 0 100-1.923.961.961 0 000 1.923zm17.834 0a.961.961 0 10-.001-1.923.961.961 0 000 1.923zm17.833 0a.961.961 0 10-.001-1.923.961.961 0 00.001 1.923zm17.833 0a.961.961 0 100-1.923.961.961 0 000 1.923zm17.834 0a.961.961 0 10-.002-1.922.961.961 0 00.002 1.922zm17.833 0a.961.961 0 100-1.923.961.961 0 000 1.923zm17.833 0a.961.961 0 100-1.923.961.961 0 000 1.923zm17.834 0a.962.962 0 10-.002-1.924.962.962 0 00.002 1.924zm17.833 0a.961.961 0 100-1.923.961.961 0 000 1.923zm17.833 0a.961.961 0 100-1.923.961.961 0 000 1.923zm17.834 0a.961.961 0 10-.002-1.922.961.961 0 00.002 1.922zm17.833 0a.961.961 0 100-1.923.961.961 0 000 1.923zm17.833 0a.961.961 0 100-1.923.961.961 0 000 1.923zM16.5 214.961a.96.96 0 100-1.922.96.96 0 000 1.922zm17.833 0a.96.96 0 100-1.922.96.96 0 000 1.922zm17.834 0a.96.96 0 100-1.922.96.96 0 000 1.922zm17.833 0a.96.96 0 100-1.922.96.96 0 000 1.922zm17.833 0a.96.96 0 100-1.922.96.96 0 000 1.922zm17.834 0a.96.96 0 100-1.92.96.96 0 000 1.92zm17.833 0a.96.96 0 100-1.921.96.96 0 000 1.921zm17.833 0a.96.96 0 100-1.921.96.96 0 000 1.921zm17.834 0a.961.961 0 100-1.923.961.961 0 000 1.923zm17.833 0a.96.96 0 100-1.921.96.96 0 000 1.921zm17.833 0a.96.96 0 100-1.921.96.96 0 000 1.921zm17.834 0a.96.96 0 100-1.92.96.96 0 000 1.92zm17.833 0a.96.96 0 100-1.921.96.96 0 000 1.921zm17.833 0a.96.96 0 100-1.921.96.96 0 000 1.921zM16.5 232.794a.96.96 0 100-1.922.96.96 0 000 1.922zm17.833 0a.96.96 0 100-1.922.96.96 0 000 1.922zm17.834 0a.96.96 0 100-1.922.96.96 0 000 1.922zm17.833 0a.96.96 0 100-1.922.96.96 0 000 1.922zm17.833 0a.96.96 0 100-1.922.96.96 0 000 1.922zm17.834 0a.96.96 0 100-1.92.96.96 0 000 1.92zm17.833 0a.96.96 0 100-1.921.96.96 0 000 1.921zm17.833 0a.96.96 0 100-1.921.96.96 0 000 1.921zm17.834 0a.961.961 0 100-1.923.961.961 0 000 1.923zm17.833 0a.96.96 0 100-1.921.96.96 0 000 1.921zm17.833 0a.96.96 0 100-1.921.96.96 0 000 1.921zm17.834 0a.96.96 0 100-1.92.96.96 0 000 1.92zm17.833 0a.96.96 0 100-1.921.96.96 0 000 1.921zm17.833 0a.96.96 0 100-1.921.96.96 0 000 1.921zM16.5 250.628a.961.961 0 10-.001-1.923.961.961 0 000 1.923zm17.833 0a.961.961 0 100-1.923.961.961 0 000 1.923zm17.834 0a.961.961 0 10-.001-1.923.961.961 0 000 1.923zm17.833 0a.961.961 0 10-.001-1.923.961.961 0 00.001 1.923zm17.833 0a.961.961 0 100-1.923.961.961 0 000 1.923zm17.834 0a.961.961 0 10-.002-1.922.961.961 0 00.002 1.922zm17.833 0a.961.961 0 100-1.923.961.961 0 000 1.923zm17.833 0a.961.961 0 100-1.923.961.961 0 000 1.923zm17.834 0a.962.962 0 10-.002-1.924.962.962 0 00.002 1.924zm17.833 0a.961.961 0 100-1.923.961.961 0 000 1.923zm17.833 0a.961.961 0 100-1.923.961.961 0 000 1.923zm17.834 0a.961.961 0 10-.002-1.922.961.961 0 00.002 1.922zm17.833 0a.961.961 0 100-1.923.961.961 0 000 1.923zm17.833 0a.961.961 0 100-1.923.961.961 0 000 1.923zM16.5 268.461a.96.96 0 100-1.922.96.96 0 000 1.922zm17.833 0a.96.96 0 100-1.922.96.96 0 000 1.922zm17.834 0a.96.96 0 100-1.922.96.96 0 000 1.922zm17.833 0a.96.96 0 100-1.922.96.96 0 000 1.922zm17.833 0a.96.96 0 100-1.922.96.96 0 000 1.922zm17.834 0a.96.96 0 100-1.92.96.96 0 000 1.92zm17.833 0a.96.96 0 100-1.921.96.96 0 000 1.921zm17.833 0a.96.96 0 100-1.921.96.96 0 000 1.921zm17.834 0a.961.961 0 100-1.923.961.961 0 000 1.923zm17.833 0a.96.96 0 100-1.921.96.96 0 000 1.921zm17.833 0a.96.96 0 100-1.921.96.96 0 000 1.921zm17.834 0a.96.96 0 100-1.92.96.96 0 000 1.92zm17.833 0a.96.96 0 100-1.921.96.96 0 000 1.921zm17.833 0a.96.96 0 100-1.921.96.96 0 000 1.921z"/></g><path d="M303.5 203c0 12.028-10.805 23.408-29.435 31.868-18.493 8.398-44.148 13.632-72.565 13.632-28.417 0-54.072-5.234-72.565-13.632-18.63-8.46-29.435-19.84-29.435-31.868 0-12.028 10.805-23.408 29.435-31.868 18.493-8.398 44.148-13.632 72.565-13.632 28.417 0 54.072 5.234 72.565 13.632 18.63 8.46 29.435 19.84 29.435 31.868z" stroke="#E1E1E1" stroke-width="3"/><path d="M247 203c0 5.162-4.681 10.167-13.031 13.938-8.258 3.729-19.737 6.062-32.469 6.062-12.732 0-24.211-2.333-32.469-6.062C160.681 213.167 156 208.162 156 203c0-5.162 4.681-10.167 13.031-13.938 8.258-3.729 19.737-6.062 32.469-6.062 12.732 0 24.211 2.333 32.469 6.062C242.319 192.833 247 197.838 247 203z" stroke="#FB7E3D" stroke-width="2"/><path d="M304.63 259c-4.47 24.085-48.936 43-103.13 43-54.194 0-98.66-18.915-103.13-43M203.5 157v25m0 42v85m-104-106v106M98 201.5h57m93 0h57" stroke="#E1E1E1" stroke-width="3"/><path d="M277 203c0 4.367-2 8.604-5.773 12.543-3.778 3.944-9.293 7.541-16.184 10.584C241.264 232.211 222.157 236 201 236c-21.157 0-40.264-3.789-54.043-9.873-6.891-3.043-12.406-6.64-16.184-10.584C127 211.604 125 207.367 125 203c0-4.367 2-8.604 5.773-12.543 3.778-3.944 9.293-7.541 16.184-10.584C160.736 173.789 179.843 170 201 170c21.157 0 40.264 3.789 54.043 9.873 6.891 3.043 12.406 6.64 16.184 10.584C275 194.396 277 198.633 277 203z" stroke="#029DFA" stroke-width="2"/><defs><clipPath id="clip0_3235_13456"><path fill="#fff" transform="translate(-37)" d="M0 0h321v321H0z"/></clipPath></defs></svg>