<svg width="261" height="280" fill="none" xmlns="http://www.w3.org/2000/svg"><g opacity=".2" clip-path="url(#clip0_3235_13457)" fill="#029DFA"><path d="M16.5.961a.96.96 0 100-1.922.96.96 0 000 1.922zm17.833 0a.96.96 0 100-1.922.96.96 0 000 1.922zm17.834 0a.96.96 0 100-1.922.96.96 0 000 1.922zM70 .961a.96.96 0 100-1.922.96.96 0 000 1.922zm17.833 0a.96.96 0 100-1.922.96.96 0 000 1.922zm17.834 0a.961.961 0 100-1.923.961.961 0 000 1.923zm17.833 0a.96.96 0 100-1.922.96.96 0 000 1.922zm17.833 0a.96.96 0 100-1.922.96.96 0 000 1.922zm17.834 0a.961.961 0 100-1.923.961.961 0 000 1.923zm17.833 0a.96.96 0 100-1.922.96.96 0 000 1.922zm17.833 0a.96.96 0 100-1.922.96.96 0 000 1.922zm17.834 0a.96.96 0 10-.001-1.921.96.96 0 00.001 1.921zm17.833 0a.96.96 0 100-1.922.96.96 0 000 1.922zm17.833 0a.96.96 0 100-1.922.96.96 0 000 1.922zM16.5 18.794a.96.96 0 100-1.921.96.96 0 000 1.921zm17.833 0a.96.96 0 100-1.921.96.96 0 000 1.921zm17.834 0a.96.96 0 100-1.921.96.96 0 000 1.921zm17.833 0a.96.96 0 100-1.921.96.96 0 000 1.921zm17.833 0a.96.96 0 100-1.921.96.96 0 000 1.921zm17.834 0a.961.961 0 100-1.923.961.961 0 000 1.923zm17.833 0a.96.96 0 100-1.921.96.96 0 000 1.921zm17.833 0a.96.96 0 100-1.921.96.96 0 000 1.921zm17.834 0a.961.961 0 100-1.923.961.961 0 000 1.923zm17.833 0a.96.96 0 100-1.921.96.96 0 000 1.921zm17.833 0a.96.96 0 100-1.921.96.96 0 000 1.921zm17.834 0a.96.96 0 10-.001-1.92.96.96 0 00.001 1.92zm17.833 0a.96.96 0 100-1.921.96.96 0 000 1.921zm17.833 0a.96.96 0 100-1.921.96.96 0 000 1.921zM16.5 36.628a.96.96 0 100-1.922.96.96 0 000 1.922zm17.833 0a.96.96 0 100-1.922.96.96 0 000 1.922zm17.834 0a.96.96 0 100-1.922.96.96 0 000 1.922zm17.833 0a.96.96 0 100-1.922.96.96 0 000 1.922zm17.833 0a.96.96 0 100-1.922.96.96 0 000 1.922zm17.834 0a.961.961 0 100-1.923.961.961 0 000 1.923zm17.833 0a.96.96 0 100-1.922.96.96 0 000 1.922zm17.833 0a.96.96 0 100-1.922.96.96 0 000 1.922zm17.834 0a.961.961 0 100-1.923.961.961 0 000 1.923zm17.833 0a.96.96 0 100-1.922.96.96 0 000 1.922zm17.833 0a.96.96 0 100-1.922.96.96 0 000 1.922zm17.834 0a.96.96 0 10-.001-1.922.96.96 0 00.001 1.922zm17.833 0a.96.96 0 100-1.922.96.96 0 000 1.922zm17.833 0a.96.96 0 100-1.922.96.96 0 000 1.922zM16.5 54.461a.96.96 0 100-1.922.96.96 0 000 1.922zm17.833 0a.96.96 0 100-1.922.96.96 0 000 1.922zm17.834 0a.96.96 0 100-1.922.96.96 0 000 1.922zm17.833 0a.96.96 0 100-1.922.96.96 0 000 1.922zm17.833 0a.96.96 0 100-1.922.96.96 0 000 1.922zm17.834 0a.961.961 0 100-1.923.961.961 0 000 1.923zm17.833 0a.96.96 0 100-1.922.96.96 0 000 1.922zm17.833 0a.96.96 0 100-1.922.96.96 0 000 1.922zm17.834 0a.961.961 0 100-1.923.961.961 0 000 1.923zm17.833 0a.96.96 0 100-1.922.96.96 0 000 1.922zm17.833 0a.96.96 0 100-1.922.96.96 0 000 1.922zm17.834 0a.96.96 0 10-.001-1.921.96.96 0 00.001 1.921zm17.833 0a.96.96 0 100-1.922.96.96 0 000 1.922zm17.833 0a.96.96 0 100-1.922.96.96 0 000 1.922zM16.5 72.294a.96.96 0 100-1.921.96.96 0 000 1.921zm17.833 0a.96.96 0 100-1.921.96.96 0 000 1.921zm17.834 0a.96.96 0 100-1.921.96.96 0 000 1.921zm17.833 0a.96.96 0 100-1.921.96.96 0 000 1.921zm17.833 0a.96.96 0 100-1.921.96.96 0 000 1.921zm17.834 0a.961.961 0 100-1.923.961.961 0 000 1.923zm17.833 0a.96.96 0 100-1.921.96.96 0 000 1.921zm17.833 0a.96.96 0 100-1.921.96.96 0 000 1.921zm17.834 0a.961.961 0 100-1.923.961.961 0 000 1.923zm17.833 0a.96.96 0 100-1.921.96.96 0 000 1.921zm17.833 0a.96.96 0 100-1.921.96.96 0 000 1.921zm17.834 0a.96.96 0 10-.001-1.92.96.96 0 00.001 1.92zm17.833 0a.96.96 0 100-1.921.96.96 0 000 1.921zm17.833 0a.96.96 0 100-1.921.96.96 0 000 1.921zM16.5 90.128a.96.96 0 100-1.922.96.96 0 000 1.922zm17.833 0a.96.96 0 100-1.922.96.96 0 000 1.922zm17.834 0a.96.96 0 100-1.922.96.96 0 000 1.922zm17.833 0a.96.96 0 100-1.922.96.96 0 000 1.922zm17.833 0a.96.96 0 100-1.922.96.96 0 000 1.922zm17.834 0a.961.961 0 100-1.923.961.961 0 000 1.923zm17.833 0a.96.96 0 100-1.922.96.96 0 000 1.922zm17.833 0a.96.96 0 100-1.922.96.96 0 000 1.922zm17.834 0a.961.961 0 100-1.923.961.961 0 000 1.923zm17.833 0a.96.96 0 100-1.922.96.96 0 000 1.922zm17.833 0a.96.96 0 100-1.922.96.96 0 000 1.922zm17.834 0a.96.96 0 10-.001-1.922.96.96 0 00.001 1.922zm17.833 0a.96.96 0 100-1.922.96.96 0 000 1.922zm17.833 0a.96.96 0 100-1.922.96.96 0 000 1.922zM16.5 107.961a.96.96 0 100-1.922.96.96 0 000 1.922zm17.833 0a.96.96 0 100-1.922.96.96 0 000 1.922zm17.834 0a.96.96 0 100-1.922.96.96 0 000 1.922zm17.833 0a.96.96 0 100-1.922.96.96 0 000 1.922zm17.833 0a.96.96 0 100-1.922.96.96 0 000 1.922zm17.834 0a.961.961 0 100-1.923.961.961 0 000 1.923zm17.833 0a.96.96 0 100-1.921.96.96 0 000 1.921zm17.833 0a.96.96 0 100-1.921.96.96 0 000 1.921zm17.834 0a.961.961 0 100-1.923.961.961 0 000 1.923zm17.833 0a.96.96 0 100-1.921.96.96 0 000 1.921zm17.833 0a.96.96 0 100-1.921.96.96 0 000 1.921zm17.834 0a.96.96 0 100-1.92.96.96 0 000 1.92zm17.833 0a.96.96 0 100-1.921.96.96 0 000 1.921zm17.833 0a.96.96 0 100-1.921.96.96 0 000 1.921zM16.5 125.794a.96.96 0 100-1.922.96.96 0 000 1.922zm17.833 0a.96.96 0 100-1.922.96.96 0 000 1.922zm17.834 0a.96.96 0 100-1.922.96.96 0 000 1.922zm17.833 0a.96.96 0 100-1.922.96.96 0 000 1.922zm17.833 0a.96.96 0 100-1.922.96.96 0 000 1.922zm17.834 0a.961.961 0 100-1.923.961.961 0 000 1.923zm17.833 0a.96.96 0 100-1.921.96.96 0 000 1.921zm17.833 0a.96.96 0 100-1.921.96.96 0 000 1.921zm17.834 0a.961.961 0 100-1.923.961.961 0 000 1.923zm17.833 0a.96.96 0 100-1.921.96.96 0 000 1.921zm17.833 0a.96.96 0 100-1.921.96.96 0 000 1.921zm17.834 0a.96.96 0 100-1.92.96.96 0 000 1.92zm17.833 0a.96.96 0 100-1.921.96.96 0 000 1.921zm17.833 0a.96.96 0 100-1.921.96.96 0 000 1.921zM16.5 143.628a.961.961 0 10-.001-1.923.961.961 0 00.001 1.923zm17.833 0a.961.961 0 100-1.923.961.961 0 000 1.923zm17.834 0a.961.961 0 10-.001-1.923.961.961 0 000 1.923zm17.833 0a.961.961 0 10-.001-1.923.961.961 0 00.001 1.923zm17.833 0a.961.961 0 100-1.923.961.961 0 000 1.923zm17.834 0a.962.962 0 10-.002-1.924.962.962 0 00.002 1.924zm17.833 0a.961.961 0 100-1.923.961.961 0 000 1.923zm17.833 0a.961.961 0 100-1.923.961.961 0 000 1.923zm17.834 0a.962.962 0 10-.002-1.924.962.962 0 00.002 1.924zm17.833 0a.961.961 0 100-1.923.961.961 0 000 1.923zm17.833 0a.961.961 0 100-1.923.961.961 0 000 1.923zm17.834 0a.961.961 0 10-.002-1.922.961.961 0 00.002 1.922zm17.833 0a.961.961 0 100-1.923.961.961 0 000 1.923zm17.833 0a.961.961 0 100-1.923.961.961 0 000 1.923zM16.5 161.461a.96.96 0 100-1.922.96.96 0 000 1.922zm17.833 0a.96.96 0 100-1.922.96.96 0 000 1.922zm17.834 0a.96.96 0 100-1.922.96.96 0 000 1.922zm17.833 0a.96.96 0 100-1.922.96.96 0 000 1.922zm17.833 0a.96.96 0 100-1.922.96.96 0 000 1.922zm17.834 0a.961.961 0 100-1.923.961.961 0 000 1.923zm17.833 0a.96.96 0 100-1.921.96.96 0 000 1.921zm17.833 0a.96.96 0 100-1.921.96.96 0 000 1.921zm17.834 0a.961.961 0 100-1.923.961.961 0 000 1.923zm17.833 0a.96.96 0 100-1.921.96.96 0 000 1.921zm17.833 0a.96.96 0 100-1.921.96.96 0 000 1.921zm17.834 0a.96.96 0 100-1.92.96.96 0 000 1.92zm17.833 0a.96.96 0 100-1.921.96.96 0 000 1.921zm17.833 0a.96.96 0 100-1.921.96.96 0 000 1.921zM16.5 179.294a.96.96 0 100-1.922.96.96 0 000 1.922zm17.833 0a.96.96 0 100-1.922.96.96 0 000 1.922zm17.834 0a.96.96 0 100-1.922.96.96 0 000 1.922zm17.833 0a.96.96 0 100-1.922.96.96 0 000 1.922zm17.833 0a.96.96 0 100-1.922.96.96 0 000 1.922zm17.834 0a.961.961 0 100-1.923.961.961 0 000 1.923zm17.833 0a.96.96 0 100-1.921.96.96 0 000 1.921zm17.833 0a.96.96 0 100-1.921.96.96 0 000 1.921zm17.834 0a.961.961 0 100-1.923.961.961 0 000 1.923zm17.833 0a.96.96 0 100-1.921.96.96 0 000 1.921zm17.833 0a.96.96 0 100-1.921.96.96 0 000 1.921zm17.834 0a.96.96 0 100-1.92.96.96 0 000 1.92zm17.833 0a.96.96 0 100-1.921.96.96 0 000 1.921zm17.833 0a.96.96 0 100-1.921.96.96 0 000 1.921zM16.5 197.128a.961.961 0 10-.001-1.923.961.961 0 00.001 1.923zm17.833 0a.961.961 0 100-1.923.961.961 0 000 1.923zm17.834 0a.961.961 0 10-.001-1.923.961.961 0 000 1.923zm17.833 0a.961.961 0 10-.001-1.923.961.961 0 00.001 1.923zm17.833 0a.961.961 0 100-1.923.961.961 0 000 1.923zm17.834 0a.962.962 0 10-.002-1.924.962.962 0 00.002 1.924zm17.833 0a.961.961 0 100-1.923.961.961 0 000 1.923zm17.833 0a.961.961 0 100-1.923.961.961 0 000 1.923zm17.834 0a.962.962 0 10-.002-1.924.962.962 0 00.002 1.924zm17.833 0a.961.961 0 100-1.923.961.961 0 000 1.923zm17.833 0a.961.961 0 100-1.923.961.961 0 000 1.923zm17.834 0a.961.961 0 10-.002-1.922.961.961 0 00.002 1.922zm17.833 0a.961.961 0 100-1.923.961.961 0 000 1.923zm17.833 0a.961.961 0 100-1.923.961.961 0 000 1.923zM16.5 214.961a.96.96 0 100-1.922.96.96 0 000 1.922zm17.833 0a.96.96 0 100-1.922.96.96 0 000 1.922zm17.834 0a.96.96 0 100-1.922.96.96 0 000 1.922zm17.833 0a.96.96 0 100-1.922.96.96 0 000 1.922zm17.833 0a.96.96 0 100-1.922.96.96 0 000 1.922zm17.834 0a.961.961 0 100-1.923.961.961 0 000 1.923zm17.833 0a.96.96 0 100-1.921.96.96 0 000 1.921zm17.833 0a.96.96 0 100-1.921.96.96 0 000 1.921zm17.834 0a.961.961 0 100-1.923.961.961 0 000 1.923zm17.833 0a.96.96 0 100-1.921.96.96 0 000 1.921zm17.833 0a.96.96 0 100-1.921.96.96 0 000 1.921zm17.834 0a.96.96 0 100-1.92.96.96 0 000 1.92zm17.833 0a.96.96 0 100-1.921.96.96 0 000 1.921zm17.833 0a.96.96 0 100-1.921.96.96 0 000 1.921zM16.5 232.794a.96.96 0 100-1.922.96.96 0 000 1.922zm17.833 0a.96.96 0 100-1.922.96.96 0 000 1.922zm17.834 0a.96.96 0 100-1.922.96.96 0 000 1.922zm17.833 0a.96.96 0 100-1.922.96.96 0 000 1.922zm17.833 0a.96.96 0 100-1.922.96.96 0 000 1.922zm17.834 0a.961.961 0 100-1.923.961.961 0 000 1.923zm17.833 0a.96.96 0 100-1.921.96.96 0 000 1.921zm17.833 0a.96.96 0 100-1.921.96.96 0 000 1.921zm17.834 0a.961.961 0 100-1.923.961.961 0 000 1.923zm17.833 0a.96.96 0 100-1.921.96.96 0 000 1.921zm17.833 0a.96.96 0 100-1.921.96.96 0 000 1.921zm17.834 0a.96.96 0 100-1.92.96.96 0 000 1.92zm17.833 0a.96.96 0 100-1.921.96.96 0 000 1.921zm17.833 0a.96.96 0 100-1.921.96.96 0 000 1.921zM16.5 250.628a.961.961 0 10-.001-1.923.961.961 0 00.001 1.923zm17.833 0a.961.961 0 100-1.923.961.961 0 000 1.923zm17.834 0a.961.961 0 10-.001-1.923.961.961 0 000 1.923zm17.833 0a.961.961 0 10-.001-1.923.961.961 0 00.001 1.923zm17.833 0a.961.961 0 100-1.923.961.961 0 000 1.923zm17.834 0a.962.962 0 10-.002-1.924.962.962 0 00.002 1.924zm17.833 0a.961.961 0 100-1.923.961.961 0 000 1.923zm17.833 0a.961.961 0 100-1.923.961.961 0 000 1.923zm17.834 0a.962.962 0 10-.002-1.924.962.962 0 00.002 1.924zm17.833 0a.961.961 0 100-1.923.961.961 0 000 1.923zm17.833 0a.961.961 0 100-1.923.961.961 0 000 1.923zm17.834 0a.961.961 0 10-.002-1.922.961.961 0 00.002 1.922zm17.833 0a.961.961 0 100-1.923.961.961 0 000 1.923zm17.833 0a.961.961 0 100-1.923.961.961 0 000 1.923zM16.5 268.461a.96.96 0 100-1.922.96.96 0 000 1.922zm17.833 0a.96.96 0 100-1.922.96.96 0 000 1.922zm17.834 0a.96.96 0 100-1.922.96.96 0 000 1.922zm17.833 0a.96.96 0 100-1.922.96.96 0 000 1.922zm17.833 0a.96.96 0 100-1.922.96.96 0 000 1.922zm17.834 0a.961.961 0 100-1.923.961.961 0 000 1.923zm17.833 0a.96.96 0 100-1.921.96.96 0 000 1.921zm17.833 0a.96.96 0 100-1.921.96.96 0 000 1.921zm17.834 0a.961.961 0 100-1.923.961.961 0 000 1.923zm17.833 0a.96.96 0 100-1.921.96.96 0 000 1.921zm17.833 0a.96.96 0 100-1.921.96.96 0 000 1.921zm17.834 0a.96.96 0 100-1.92.96.96 0 000 1.92zm17.833 0a.96.96 0 100-1.921.96.96 0 000 1.921zm17.833 0a.96.96 0 100-1.921.96.96 0 000 1.921z"/></g><path d="M281.5 210c0 3.789-2.204 7.615-6.683 11.297-4.467 3.674-11.023 7.05-19.256 9.914-16.452 5.722-39.278 9.289-64.561 9.289-25.283 0-48.109-3.567-64.561-9.289-8.233-2.864-14.789-6.24-19.256-9.914-4.479-3.682-6.683-7.508-6.683-11.297 0-3.789 2.204-7.615 6.683-11.297 4.467-3.674 11.023-7.05 19.256-9.914 16.452-5.722 39.278-9.289 64.561-9.289 25.283 0 48.109 3.567 64.561 9.289 8.233 2.864 14.789 6.24 19.256 9.914 4.479 3.682 6.683 7.508 6.683 11.297z" stroke="#E1E1E1" stroke-width="3"/><path d="M212.9 193c-3.672-39.172-16.115-68-30.9-68-17.673 0-32 41.19-32 92s14.327 92 32 92c14.785 0 27.228-28.828 30.9-68" stroke="#E1E1E1" stroke-width="3"/><path d="M193 187l19 19 19-19" stroke="#FB7E3D" stroke-width="2"/><path d="M179 259l19-19-19-19" stroke="#029DFA" stroke-width="2"/><path d="M193 176l19 19 19-19" stroke="#FB7E3D" stroke-width="2"/><path d="M168 259l19-19-19-19" stroke="#029DFA" stroke-width="2"/><defs><clipPath id="clip0_3235_13457"><path fill="#fff" transform="translate(-37)" d="M0 0h321v321H0z"/></clipPath></defs></svg>