<svg width="210" height="278" fill="none" xmlns="http://www.w3.org/2000/svg"><path d="M1 16.794a.96.96 0 100-1.921.96.96 0 000 1.921zm17.833 0a.96.96 0 100-1.921.96.96 0 000 1.921zm17.834 0a.96.96 0 100-1.921.96.96 0 000 1.921zm17.833 0a.96.96 0 100-1.921.96.96 0 000 1.921zm17.833 0a.96.96 0 100-1.921.96.96 0 000 1.921zm17.834 0a.96.96 0 100-1.921.96.96 0 000 1.921zm17.833 0a.96.96 0 100-1.921.96.96 0 000 1.921zm17.833 0a.96.96 0 100-1.921.96.96 0 000 1.921zm17.834 0a.961.961 0 100-1.923.961.961 0 000 1.923zm17.833 0a.96.96 0 100-1.921.96.96 0 000 1.921zm17.833 0a.96.96 0 100-1.921.96.96 0 000 1.921zm17.834 0a.961.961 0 100-1.923.961.961 0 000 1.923zM1 34.628a.96.96 0 100-1.922.96.96 0 000 1.922zm17.833 0a.96.96 0 100-1.922.96.96 0 000 1.922zm17.834 0a.96.96 0 100-1.922.96.96 0 000 1.922zm17.833 0a.96.96 0 100-1.922.96.96 0 000 1.922zm17.833 0a.96.96 0 100-1.922.96.96 0 000 1.922zm17.834 0a.96.96 0 100-1.922.96.96 0 000 1.922zm17.833 0a.96.96 0 100-1.922.96.96 0 000 1.922zm17.833 0a.96.96 0 100-1.922.96.96 0 000 1.922zm17.834 0a.961.961 0 100-1.923.961.961 0 000 1.923zm17.833 0a.96.96 0 100-1.922.96.96 0 000 1.922zm17.833 0a.96.96 0 100-1.922.96.96 0 000 1.922zm17.834 0a.961.961 0 100-1.923.961.961 0 000 1.923zM1 52.461a.96.96 0 100-1.922.96.96 0 000 1.922zm17.833 0a.96.96 0 100-1.922.96.96 0 000 1.922zm17.834 0a.96.96 0 100-1.922.96.96 0 000 1.922zm17.833 0a.96.96 0 100-1.922.96.96 0 000 1.922zm17.833 0a.96.96 0 100-1.922.96.96 0 000 1.922zm17.834 0a.96.96 0 100-1.922.96.96 0 000 1.922zm17.833 0a.96.96 0 100-1.921.96.96 0 000 1.921zm17.833 0a.96.96 0 100-1.921.96.96 0 000 1.921zm17.834 0a.961.961 0 100-1.923.961.961 0 000 1.923zm17.833 0a.96.96 0 100-1.921.96.96 0 000 1.921zm17.833 0a.96.96 0 100-1.921.96.96 0 000 1.921zm17.834 0a.961.961 0 100-1.923.961.961 0 000 1.923zM1 70.294a.96.96 0 100-1.921.96.96 0 000 1.921zm17.833 0a.96.96 0 100-1.921.96.96 0 000 1.921zm17.834 0a.96.96 0 100-1.921.96.96 0 000 1.921zm17.833 0a.96.96 0 100-1.921.96.96 0 000 1.921zm17.833 0a.96.96 0 100-1.921.96.96 0 000 1.921zm17.834 0a.96.96 0 100-1.921.96.96 0 000 1.921zm17.833 0a.96.96 0 100-1.921.96.96 0 000 1.921zm17.833 0a.96.96 0 100-1.921.96.96 0 000 1.921zm17.834 0a.961.961 0 100-1.923.961.961 0 000 1.923zm17.833 0a.96.96 0 100-1.921.96.96 0 000 1.921zm17.833 0a.96.96 0 100-1.921.96.96 0 000 1.921zm17.834 0a.961.961 0 100-1.923.961.961 0 000 1.923zM1 88.128a.96.96 0 100-1.922.96.96 0 000 1.922zm17.833 0a.96.96 0 100-1.922.96.96 0 000 1.922zm17.834 0a.96.96 0 100-1.922.96.96 0 000 1.922zm17.833 0a.96.96 0 100-1.922.96.96 0 000 1.922zm17.833 0a.96.96 0 100-1.922.96.96 0 000 1.922zm17.834 0a.96.96 0 100-1.922.96.96 0 000 1.922zm17.833 0a.96.96 0 100-1.922.96.96 0 000 1.922zm17.833 0a.96.96 0 100-1.922.96.96 0 000 1.922zm17.834 0a.961.961 0 100-1.923.961.961 0 000 1.923zm17.833 0a.96.96 0 100-1.922.96.96 0 000 1.922zm17.833 0a.96.96 0 100-1.922.96.96 0 000 1.922zm17.834 0a.961.961 0 100-1.923.961.961 0 000 1.923zM1 105.961a.96.96 0 100-1.922.96.96 0 000 1.922zm17.833 0a.96.96 0 100-1.922.96.96 0 000 1.922zm17.834 0a.96.96 0 100-1.922.96.96 0 000 1.922zm17.833 0a.96.96 0 100-1.922.96.96 0 000 1.922zm17.833 0a.96.96 0 100-1.922.96.96 0 000 1.922zm17.834 0a.96.96 0 100-1.922.96.96 0 000 1.922zm17.833 0a.96.96 0 100-1.921.96.96 0 000 1.921zm17.833 0a.96.96 0 100-1.921.96.96 0 000 1.921zm17.834 0a.961.961 0 100-1.923.961.961 0 000 1.923zm17.833 0a.96.96 0 100-1.921.96.96 0 000 1.921zm17.833 0a.96.96 0 100-1.921.96.96 0 000 1.921zm17.834 0a.961.961 0 100-1.923.961.961 0 000 1.923zM1 123.794a.96.96 0 100-1.922.96.96 0 000 1.922zm17.833 0a.96.96 0 100-1.922.96.96 0 000 1.922zm17.834 0a.96.96 0 100-1.922.96.96 0 000 1.922zm17.833 0a.96.96 0 100-1.922.96.96 0 000 1.922zm17.833 0a.96.96 0 100-1.922.96.96 0 000 1.922zm17.834 0a.96.96 0 100-1.922.96.96 0 000 1.922zm17.833 0a.96.96 0 100-1.921.96.96 0 000 1.921zm17.833 0a.96.96 0 100-1.921.96.96 0 000 1.921zm17.834 0a.961.961 0 100-1.923.961.961 0 000 1.923zm17.833 0a.96.96 0 100-1.921.96.96 0 000 1.921zm17.833 0a.96.96 0 100-1.921.96.96 0 000 1.921zm17.834 0a.961.961 0 100-1.923.961.961 0 000 1.923zM1 141.628a.961.961 0 10-.001-1.923.961.961 0 00.001 1.923zm17.833 0a.961.961 0 100-1.923.961.961 0 000 1.923zm17.834 0a.961.961 0 10-.001-1.923.961.961 0 000 1.923zm17.833 0a.961.961 0 10-.001-1.923.961.961 0 00.001 1.923zm17.833 0a.961.961 0 100-1.923.961.961 0 000 1.923zm17.834 0a.961.961 0 10-.001-1.923.961.961 0 000 1.923zm17.833 0a.961.961 0 100-1.923.961.961 0 000 1.923zm17.833 0a.961.961 0 100-1.923.961.961 0 000 1.923zm17.834 0a.962.962 0 10-.002-1.924.962.962 0 00.002 1.924zm17.833 0a.961.961 0 100-1.923.961.961 0 000 1.923zm17.833 0a.961.961 0 100-1.923.961.961 0 000 1.923zm17.834 0a.962.962 0 10-.002-1.924.962.962 0 00.002 1.924zM1 159.461a.96.96 0 100-1.922.96.96 0 000 1.922zm17.833 0a.96.96 0 100-1.922.96.96 0 000 1.922zm17.834 0a.96.96 0 100-1.922.96.96 0 000 1.922zm17.833 0a.96.96 0 100-1.922.96.96 0 000 1.922zm17.833 0a.96.96 0 100-1.922.96.96 0 000 1.922zm17.834 0a.96.96 0 100-1.922.96.96 0 000 1.922zm17.833 0a.96.96 0 100-1.921.96.96 0 000 1.921zm17.833 0a.96.96 0 100-1.921.96.96 0 000 1.921zm17.834 0a.961.961 0 100-1.923.961.961 0 000 1.923zm17.833 0a.96.96 0 100-1.921.96.96 0 000 1.921zm17.833 0a.96.96 0 100-1.921.96.96 0 000 1.921zm17.834 0a.961.961 0 100-1.923.961.961 0 000 1.923zM1 177.294a.96.96 0 100-1.922.96.96 0 000 1.922zm17.833 0a.96.96 0 100-1.922.96.96 0 000 1.922zm17.834 0a.96.96 0 100-1.922.96.96 0 000 1.922zm17.833 0a.96.96 0 100-1.922.96.96 0 000 1.922zm17.833 0a.96.96 0 100-1.922.96.96 0 000 1.922zm17.834 0a.96.96 0 100-1.922.96.96 0 000 1.922zm17.833 0a.96.96 0 100-1.921.96.96 0 000 1.921zm17.833 0a.96.96 0 100-1.921.96.96 0 000 1.921zm17.834 0a.961.961 0 100-1.923.961.961 0 000 1.923zm17.833 0a.96.96 0 100-1.921.96.96 0 000 1.921zm17.833 0a.96.96 0 100-1.921.96.96 0 000 1.921zm17.834 0a.961.961 0 100-1.923.961.961 0 000 1.923zM1 195.128a.96.96 0 100-1.922.96.96 0 000 1.922zm17.833 0a.96.96 0 100-1.922.96.96 0 000 1.922zm17.834 0a.96.96 0 100-1.922.96.96 0 000 1.922zm17.833 0a.96.96 0 100-1.922.96.96 0 000 1.922zm17.833 0a.96.96 0 100-1.922.96.96 0 000 1.922zm17.834 0a.96.96 0 100-1.922.96.96 0 000 1.922zm17.833 0a.96.96 0 100-1.921.96.96 0 000 1.921zm17.833 0a.96.96 0 100-1.921.96.96 0 000 1.921zm17.834 0a.961.961 0 100-1.923.961.961 0 000 1.923zm17.833 0a.96.96 0 100-1.921.96.96 0 000 1.921zm17.833 0a.96.96 0 100-1.921.96.96 0 000 1.921zm17.834 0a.961.961 0 100-1.923.961.961 0 000 1.923zM1 212.961a.96.96 0 100-1.922.96.96 0 000 1.922zm17.833 0a.96.96 0 100-1.922.96.96 0 000 1.922zm17.834 0a.96.96 0 100-1.922.96.96 0 000 1.922zm17.833 0a.96.96 0 100-1.922.96.96 0 000 1.922zm17.833 0a.96.96 0 100-1.922.96.96 0 000 1.922zm17.834 0a.96.96 0 100-1.922.96.96 0 000 1.922zm17.833 0a.96.96 0 100-1.921.96.96 0 000 1.921zm17.833 0a.96.96 0 100-1.921.96.96 0 000 1.921zm17.834 0a.961.961 0 100-1.923.961.961 0 000 1.923zm17.833 0a.96.96 0 100-1.921.96.96 0 000 1.921zm17.833 0a.96.96 0 100-1.921.96.96 0 000 1.921zm17.834 0a.961.961 0 100-1.923.961.961 0 000 1.923zM1 230.794a.96.96 0 100-1.922.96.96 0 000 1.922zm17.833 0a.96.96 0 100-1.922.96.96 0 000 1.922zm17.834 0a.96.96 0 100-1.922.96.96 0 000 1.922zm17.833 0a.96.96 0 100-1.922.96.96 0 000 1.922zm17.833 0a.96.96 0 100-1.922.96.96 0 000 1.922zm17.834 0a.96.96 0 100-1.922.96.96 0 000 1.922zm17.833 0a.96.96 0 100-1.921.96.96 0 000 1.921zm17.833 0a.96.96 0 100-1.921.96.96 0 000 1.921zm17.834 0a.961.961 0 100-1.923.961.961 0 000 1.923zm17.833 0a.96.96 0 100-1.921.96.96 0 000 1.921zm17.833 0a.96.96 0 100-1.921.96.96 0 000 1.921zm17.834 0a.961.961 0 100-1.923.961.961 0 000 1.923zM1 248.628a.961.961 0 10-.001-1.923.961.961 0 00.001 1.923zm17.833 0a.961.961 0 100-1.923.961.961 0 000 1.923zm17.834 0a.961.961 0 10-.001-1.923.961.961 0 000 1.923zm17.833 0a.961.961 0 10-.001-1.923.961.961 0 00.001 1.923zm17.833 0a.961.961 0 100-1.923.961.961 0 000 1.923zm17.834 0a.961.961 0 10-.001-1.923.961.961 0 000 1.923zm17.833 0a.961.961 0 100-1.923.961.961 0 000 1.923zm17.833 0a.961.961 0 100-1.923.961.961 0 000 1.923zm17.834 0a.962.962 0 10-.002-1.924.962.962 0 00.002 1.924zm17.833 0a.961.961 0 100-1.923.961.961 0 000 1.923zm17.833 0a.961.961 0 100-1.923.961.961 0 000 1.923zm17.834 0a.962.962 0 10-.002-1.924.962.962 0 00.002 1.924zM1 266.461a.96.96 0 100-1.922.96.96 0 000 1.922zm17.833 0a.96.96 0 100-1.922.96.96 0 000 1.922zm17.834 0a.96.96 0 100-1.922.96.96 0 000 1.922zm17.833 0a.96.96 0 100-1.922.96.96 0 000 1.922zm17.833 0a.96.96 0 100-1.922.96.96 0 000 1.922zm17.834 0a.96.96 0 100-1.922.96.96 0 000 1.922zm17.833 0a.96.96 0 100-1.921.96.96 0 000 1.921zm17.833 0a.96.96 0 100-1.921.96.96 0 000 1.921zm17.834 0a.961.961 0 100-1.923.961.961 0 000 1.923zm17.833 0a.96.96 0 100-1.921.96.96 0 000 1.921zm17.833 0a.96.96 0 100-1.921.96.96 0 000 1.921zm17.834 0a.961.961 0 100-1.923.961.961 0 000 1.923z" opacity=".2" fill="#029DFA"/><path d="M159 210.5l17-43.5h-72.5l-12.795 32.732M230 60v41.854c0 5.523-4.477 10-10 10h-51.5m-53.004 0H103c-5.523 0-10-4.477-10-10V50.5c0-6.627 5.373-12 12-12h113.5" stroke="#E1E1E1" stroke-width="3"/><path d="M124 122l19 19 19-19" stroke="#029DFA" stroke-width="2"/><path d="M124 111l19 19 19-19" stroke="#029DFA" stroke-width="2"/><path stroke="#E1E1E1" stroke-width="3" d="M17 211.5h167"/><path d="M84 138.5c0 10.242-8.083 18.5-18 18.5s-18-8.258-18-18.5S56.083 120 66 120s18 8.258 18 18.5zm-60 58.549l7.437-17.77A20 20 0 0149.887 167H93" stroke="#FB7E3D" stroke-width="2"/></svg>