<svg width="50" height="50" fill="none" xmlns="http://www.w3.org/2000/svg"><path d="M47.906 48.456C41.81 46.03 36.4 40.81 35.504 34.056c-.05-.376.247-.89.632-1.142l.704-.458c1.221-.76 2.362-1.794 3.528-2.758 1.095-1.094 2.219-2.148 3.166-3.398 3.957-5.227 6.826-12.077 6.43-18.78a19.4 19.4 0 00-.823-4.595c-.087-.315-.164-.59-.229-.818-.127-.453-.366-.468-.536-.037-.086.22-.189.481-.31.783a11.069 11.069 0 01-.797 1.696c-2.162 3.806-8.188 11.317-13.451 9.923-1.274-.338-2.083-2.31-2.862-3.289-2.294-2.884-5.131-5.388-8.308-7.261C17.017.603 9.285-1.144 2.888.832l-.819.23c-.517.145-.816.227-.816.227l1.562.619c.488.176 1.063.443 1.694.8 2.759 1.568 5.166 3.474 7.016 6.095 1.566 2.22 4.74 6.823 1.57 8.794C5.577 22.273-.363 31.898.018 40.961l.067 1.565c.018.982.168 1.874.298 2.646.104.77.248 1.422.414 1.956.088.315.164.59.23.819.126.453.365.468.535.036.086-.22.19-.481.31-.783.175-.488.442-1.066.8-1.696.334-.633.695-1.328 1.212-2.026 1.684-2.277 3.727-4.334 6.165-5.796 1.288-.775 5.845-3.314 7.043-1.476 4.664 7.161 11.786 12.111 20.247 13.502.636.104 1.254.185 1.87.2L40.89 50c.541-.024 1.062-.044 1.566-.066.979-.02 1.87-.17 2.642-.299.768-.102 1.42-.249 1.954-.414.314-.088.59-.163.818-.228.447-.127.464-.365.036-.537zM24.963 29.93c-2.62 0-4.74-2.067-4.871-4.656-.005-.083-.024-.163-.024-.247a4.9 4.9 0 014.895-4.902c2.621 0 4.742 2.066 4.875 4.656.003.083.024.163.024.247a4.899 4.899 0 01-4.899 4.902z" fill="#DB042D"/></svg>