<svg width="54" height="54" fill="none" xmlns="http://www.w3.org/2000/svg"><rect width="54" height="54" rx="4" fill="#181819"/><path d="M20.203 18.75a2.97 2.97 0 01-2.25 2.906V27H28.5v-5.344c-1.313-.328-2.297-1.5-2.297-2.906 0-1.64 1.36-3 3.047-3 1.64 0 3 1.36 3 3A3.022 3.022 0 0130 21.656V27h9.14l-2.906-2.39c-.328-.282-.328-.75-.093-1.079.28-.328.75-.328 1.078-.093l4.5 3.75c0 .046.047.046.047.093a.58.58 0 01.234.469c0 .047-.047.047-.047.047a.792.792 0 01-.14.469c-.047 0-.047.047-.094.093l-4.5 3.75a.851.851 0 01-1.078-.093c-.235-.328-.235-.797.093-1.078l2.907-2.438H24v3.844c1.266.375 2.25 1.547 2.25 2.906 0 1.688-1.36 3-3 3-1.688 0-3-1.313-3-3 0-1.36.938-2.531 2.25-2.906V28.5h-9.75a.74.74 0 01-.75-.75c0-.375.328-.75.75-.75h3.75v-5.344a2.97 2.97 0 01-2.25-2.906c0-1.64 1.313-3 3-3 1.64 0 3 1.36 3 3h-.047zm-3-1.5c-.797 0-1.5.703-1.5 1.5 0 .844.703 1.5 1.5 1.5.844 0 1.5-.656 1.5-1.5 0-.797-.656-1.5-1.5-1.5zm6 19.5c.844 0 1.5-.656 1.5-1.5 0-.797-.656-1.5-1.5-1.5-.797 0-1.5.703-1.5 1.5 0 .844.703 1.5 1.5 1.5zm6.047-19.5c-.844 0-1.5.703-1.5 1.5 0 .844.656 1.5 1.5 1.5.797 0 1.5-.656 1.5-1.5 0-.797-.703-1.5-1.5-1.5z" fill="#FB7E3D"/></svg>