<svg width="54" height="54" fill="none" xmlns="http://www.w3.org/2000/svg"><rect width="54" height="54" rx="4" fill="#302F32"/><path d="M39 28.5c1.64 0 3 1.36 3 3V36c0 1.688-1.36 3-3 3h-7.5c-1.688 0-3-1.313-3-3v-4.5c0-1.64 1.313-3 3-3v-3.75c0-2.063 1.734-3.75 3.75-3.75A3.761 3.761 0 0139 24.75c0 .422-.375.75-.75.75a.74.74 0 01-.75-.75c0-1.219-1.031-2.25-2.25-2.25A2.25 2.25 0 0033 24.75v3.75h6zm1.5 7.5v-4.5c0-.797-.703-1.5-1.5-1.5h-7.5c-.844 0-1.5.703-1.5 1.5V36c0 .844.656 1.5 1.5 1.5H39c.797 0 1.5-.656 1.5-1.5zm-5.25-3.375c.61 0 1.125.516 1.125 1.125a1.11 1.11 0 01-1.125 1.125c-.656 0-1.125-.469-1.125-1.125 0-.61.469-1.125 1.125-1.125zM20.11 30.75c-3.657 0-6.657 3-6.61 6.656a.1.1 0 00.094.094H26.25c.375 0 .75.375.75.75 0 .422-.375.75-.75.75H13.594A1.58 1.58 0 0112 37.406c-.047-4.5 3.61-8.156 8.11-8.156h4.734c.562 0 1.078.094 1.547.188.328.046.562.328.609.656v.047c.094.468-.375.89-.844.75-.422-.047-.843-.141-1.312-.141h-4.735zM22.5 27c-3.328 0-6-2.672-6-6 0-3.281 2.672-6 6-6 3.281 0 6 2.719 6 6 0 3.328-2.719 6-6 6zm0-10.5c-2.484 0-4.5 2.063-4.5 4.5 0 2.484 2.016 4.5 4.5 4.5 2.438 0 4.5-2.016 4.5-4.5 0-2.438-2.063-4.5-4.5-4.5z" fill="#FB7E3D"/></svg>