<svg width="30" height="30" fill="none" xmlns="http://www.w3.org/2000/svg"><path d="M14.953 18c-2.672 0-4.875-2.156-4.828-4.875 0-2.672 2.156-4.875 4.828-4.875s4.875 2.203 4.875 4.875A4.842 4.842 0 0114.953 18zm0-8.25c-1.828 0-3.375 1.547-3.375 3.375 0 1.875 1.547 3.375 3.375 3.375 1.875 0 3.375-1.5 3.375-3.375 0-1.828-1.5-3.375-3.375-3.375zm2.344 9.75C21 19.5 24 22.313 24 25.781c0 .703-.61 1.219-1.36 1.219H7.313C6.563 27 6 26.484 6 25.781c0-3.468 2.953-6.281 6.656-6.281h4.64zm-9.797 6h14.953c-.14-2.484-2.39-4.5-5.156-4.5h-4.688c-2.718 0-4.968 2.016-5.109 4.5zm16.5-15c-2.11 0-3.75-1.64-3.75-3.75A3.73 3.73 0 0124 3a3.761 3.761 0 013.75 3.75c0 2.11-1.688 3.75-3.75 3.75zm0-6a2.25 2.25 0 00-2.25 2.25A2.22 2.22 0 0024 9a2.25 2.25 0 002.25-2.25c0-1.219-1.031-2.25-2.25-2.25zm-18 6c-2.11 0-3.75-1.64-3.75-3.75A3.73 3.73 0 016 3a3.761 3.761 0 013.75 3.75c0 2.11-1.688 3.75-3.75 3.75zm0-6a2.25 2.25 0 00-2.25 2.25A2.22 2.22 0 006 9a2.25 2.25 0 002.25-2.25C8.25 5.531 7.219 4.5 6 4.5zM26.297 12C28.312 12 30 13.781 30 15.89v.61c0 .422-.375.75-.75.75a.74.74 0 01-.75-.75v-.61c0-1.312-1.031-2.39-2.203-2.39H23.25c-.328 0-.61.094-.89.234-.376.188-.844 0-1.032-.375a.777.777 0 01.375-.984A3.426 3.426 0 0123.25 12h3.047zM7.594 13.734c-.282-.14-.563-.234-.844-.234H3.656c-1.172 0-2.156 1.078-2.156 2.39v.61c0 .422-.375.75-.75.75A.74.74 0 010 16.5v-.61C0 13.782 1.64 12 3.656 12H6.75c.516 0 1.031.14 1.5.375.375.188.516.61.375.984-.188.375-.656.563-1.031.375z" fill="#FB7E3D"/></svg>