<svg width="54" height="54" fill="none" xmlns="http://www.w3.org/2000/svg"><rect width="54" height="54" rx="4" fill="#F2F1F2"/><path d="M19.5 18c0-1.64 1.313-3 3-3 1.64 0 3 1.36 3 3 0 .938-.422 1.734-1.078 2.297l1.828 3.937c.469-.14.984-.234 1.5-.234 1.453 0 2.813.656 3.75 1.64l4.734-3.421C36.047 21.844 36 21.469 36 21c0-1.64 1.313-3 3-3 1.64 0 3 1.36 3 3 0 1.688-1.36 3-3 3-.703 0-1.36-.188-1.828-.61l-4.781 3.47A5.17 5.17 0 0133 29.25c0 .75-.188 1.406-.422 2.063l4.313 2.578C37.406 33.328 38.156 33 39 33c1.64 0 3 1.36 3 3 0 1.688-1.36 3-3 3-1.688 0-3-1.313-3-3 0-.281 0-.563.094-.844l-4.313-2.578A5.14 5.14 0 0127.75 34.5c-2.672 0-4.875-1.922-5.203-4.5h-4.688A2.957 2.957 0 0115 32.25c-1.688 0-3-1.313-3-3 0-1.64 1.313-3 3-3 1.36 0 2.531.984 2.86 2.25h4.687c.187-1.5 1.078-2.813 2.344-3.656l-1.782-3.89c-.234.046-.422.046-.609.046-1.688 0-3-1.313-3-3zm3 1.5c.797 0 1.5-.656 1.5-1.5 0-.797-.703-1.5-1.5-1.5-.844 0-1.5.703-1.5 1.5 0 .844.656 1.5 1.5 1.5zm16.5 3c.797 0 1.5-.656 1.5-1.5 0-.797-.703-1.5-1.5-1.5-.844 0-1.5.703-1.5 1.5 0 .844.656 1.5 1.5 1.5zm0 12c-.844 0-1.5.703-1.5 1.5 0 .844.656 1.5 1.5 1.5.797 0 1.5-.656 1.5-1.5 0-.797-.703-1.5-1.5-1.5zm-24-3.75c.797 0 1.5-.656 1.5-1.5 0-.797-.703-1.5-1.5-1.5-.844 0-1.5.703-1.5 1.5 0 .844.656 1.5 1.5 1.5zM27.75 33a3.73 3.73 0 003.75-3.75 3.761 3.761 0 00-3.75-3.75A3.731 3.731 0 0024 29.25c0 2.11 1.64 3.75 3.75 3.75z" fill="#FB7E3D"/></svg>