<svg width="30" height="30" fill="none" xmlns="http://www.w3.org/2000/svg"><path d="M9.656 8.25c-.422-.047-.656-.422-.61-.844C9.47 4.922 11.626 3 14.25 3c2.25 0 4.219 1.5 4.922 3.516a.765.765 0 01-.469.984c-.375.14-.797-.094-.937-.469C17.25 5.578 15.844 4.5 14.25 4.5a3.737 3.737 0 00-3.703 3.14c-.094.423-.469.704-.89.61zm10.594 7.125c0-.61.469-1.125 1.125-1.125.61 0 1.125.516 1.125 1.125a1.11 1.11 0 01-1.125 1.125c-.656 0-1.125-.469-1.125-1.125zm4.125-6.469L24 10.5c.984.797 1.828 1.828 2.344 3H27c.797 0 1.5.703 1.5 1.5v4.5c0 .844-.703 1.5-1.5 1.5h-1.5c-.797 1.031-1.828 1.875-3 2.39v1.36A2.25 2.25 0 0120.25 27h-1.5a2.221 2.221 0 01-2.25-2.25V24h-3v.75A2.25 2.25 0 0111.25 27h-1.5a2.221 2.221 0 01-2.25-2.25V22.5a7.413 7.413 0 01-3-6c-1.688 0-3-1.36-3-3.047 0-1.172.656-2.203 1.688-2.765l.187-.094a.77.77 0 011.031.328.77.77 0 01-.328 1.031l-.234.094c-.516.281-.89.797-.89 1.406 0 .844.702 1.547 1.593 1.547h.094c.703-3.422 3.703-6 7.312-6h7.172c.844-.89 2.016-1.5 3.375-1.5h.797c.703 0 1.265.703 1.078 1.406zM12 10.5c-3.328 0-6 2.719-6 6 0 1.969.938 3.703 2.39 4.828l.61.422v3c0 .422.328.75.75.75h1.5c.375 0 .75-.328.75-.75V22.5h6v2.25c0 .422.328.75.75.75h1.5c.375 0 .75-.328.75-.75v-2.344l.89-.375a5.968 5.968 0 002.391-1.922l.469-.609H27V15h-1.64l-.376-.89a5.97 5.97 0 00-1.922-2.391l-.796-.61L22.828 9H22.5c-.89 0-1.688.422-2.25 1.031l-.469.469H12z" fill="#FB7E3D"/></svg>