<svg width="54" height="54" fill="none" xmlns="http://www.w3.org/2000/svg"><rect width="54" height="54" rx="4" fill="#302F32"/><path d="M22.5 27c-3.328 0-6-2.672-6-6 0-3.281 2.672-6 6-6 3.281 0 6 2.719 6 6 0 3.328-2.719 6-6 6zm0-10.5c-2.484 0-4.5 2.063-4.5 4.5 0 2.484 2.016 4.5 4.5 4.5 2.438 0 4.5-2.016 4.5-4.5 0-2.438-2.063-4.5-4.5-4.5zm7.969 21.328c.375.516 0 1.172-.61 1.172H13.594A1.58 1.58 0 0112 37.406c-.047-4.5 3.61-8.156 8.11-8.156h4.734c.562 0 1.078.094 1.547.188.328.046.562.328.609.656v.047c.094.468-.375.89-.844.75-.422-.047-.843-.141-1.312-.141h-4.735c-3.656 0-6.656 3-6.609 6.656a.1.1 0 00.094.094h16.265c.235 0 .47.14.61.328zM41.156 27.75c.516.188.844.656.844 1.125 0 5.86-3.844 9.094-6.281 10.031-.188.094-.375.094-.516.094-.14 0-.328 0-.516-.14-3-1.172-6.187-4.782-6.187-9.985 0-.469.328-.938.797-1.125l5.39-2.11c.141-.093.282-.14.516-.14.188 0 .375.047.563.14l5.39 2.11zM34.5 37.125v-9.797L30 29.063c.047 3.984 2.203 6.843 4.5 8.062zm1.5.047c1.781-1.031 4.406-3.656 4.5-8.11L36 27.328v9.844z" fill="#FB7E3D"/></svg>