<svg width="54" height="54" fill="none" xmlns="http://www.w3.org/2000/svg"><rect width="54" height="54" rx="4" fill="#302F32"/><path d="M34.5 22.125c-.656 0-1.125-.469-1.125-1.125 0-.61.469-1.125 1.125-1.125.61 0 1.125.516 1.125 1.125a1.11 1.11 0 01-1.125 1.125zm-4.5-2.25c.61 0 1.125.516 1.125 1.125A1.11 1.11 0 0130 22.125c-.656 0-1.125-.469-1.125-1.125 0-.61.469-1.125 1.125-1.125zm-4.5 2.25c-.656 0-1.125-.469-1.125-1.125 0-.61.469-1.125 1.125-1.125.61 0 1.125.516 1.125 1.125a1.11 1.11 0 01-1.125 1.125zM39 34.5c0 1.688-1.36 3-3 3H18c-1.688 0-3-1.313-3-3v-15c0-1.64 1.313-3 3-3h18c1.64 0 3 1.36 3 3v15zM36 18H18c-.844 0-1.5.703-1.5 1.5v15c0 .844.656 1.5 1.5 1.5h18c.797 0 1.5-.656 1.5-1.5v-15c0-.797-.703-1.5-1.5-1.5z" fill="#FB7E3D"/></svg>