<svg width="54" height="54" fill="none" xmlns="http://www.w3.org/2000/svg"><rect width="54" height="54" rx="4" fill="#302F32"/><path d="M39 21c1.64 0 3 1.36 3 3v12c0 1.688-1.36 3-3 3h-6c-1.688 0-3-1.313-3-3V24c0-1.64 1.313-3 3-3h6zm1.5 15V24c0-.797-.703-1.5-1.5-1.5h-6c-.844 0-1.5.703-1.5 1.5v12c0 .844.656 1.5 1.5 1.5h6c.797 0 1.5-.656 1.5-1.5zm-24-18v10.5h11.25c.375 0 .75.375.75.75 0 .422-.375.75-.75.75H13.5c0 .844.656 1.5 1.453 1.5H27.75c.375 0 .75.375.75.75 0 .422-.375.75-.797.75h-12.75C13.313 33 12 31.687 12 30v-.75c0-.375.328-.75.75-.75H15V18c0-1.64 1.313-3 3-3h15c1.64 0 3 1.36 3 3v.75c0 .422-.422.75-.797.75-.375 0-.703-.328-.703-.75V18c0-.797-.703-1.5-1.5-1.5H18c-.844 0-1.5.703-1.5 1.5z" fill="#FB7E3D"/></svg>