<svg width="54" height="54" fill="none" xmlns="http://www.w3.org/2000/svg"><rect width="54" height="54" rx="4" fill="#302F32"/><path d="M34.125 18.984v6L39 26.72c.89.328 1.5 1.172 1.5 2.156v5.906a2.24 2.24 0 01-1.406 2.063l-4.875 2.015a2.227 2.227 0 01-1.735 0L27 36.61l-5.531 2.25a2.227 2.227 0 01-1.735 0l-4.875-2.015c-.843-.328-1.359-1.172-1.359-2.063v-5.906c0-.984.563-1.828 1.453-2.156l4.875-1.735h.047v-6c0-.937.563-1.78 1.453-2.109l4.875-1.734a2.197 2.197 0 011.547 0l4.875 1.734c.89.328 1.5 1.172 1.5 2.11zm-6.89-2.437a.962.962 0 00-.516 0l-4.875 1.734c-.094.047-.188.14-.282.188l5.391 2.062 5.438-2.062c-.094-.047-.188-.14-.282-.188l-4.875-1.734zm-5.86 8.437l4.828 1.735V21.89l-4.875-1.875v4.968h.047zm6.375 1.735l4.828-1.735h.047v-4.968L27.75 21.89v4.828zm-6.797 4.64v6.094l5.25-2.156v-5.813l-5.25 1.875zm-5.531 4.125l4.031 1.641v-5.766l-4.5-1.875v5.297c0 .282.188.563.469.703zM33 31.36l-5.25-1.875v5.813L33 37.453V31.36zm1.5 5.766l4.031-1.64c.282-.141.469-.422.469-.704v-5.297l-4.5 1.875v5.766zM20.86 26.391a.964.964 0 00-.516 0l-4.782 1.734 4.688 1.922 5.344-1.922-4.735-1.734zm7.5 1.734l5.343 1.922 4.688-1.922-4.782-1.734a.964.964 0 00-.515 0l-4.735 1.734z" fill="#FB7E3D"/></svg>