<svg width="54" height="54" fill="none" xmlns="http://www.w3.org/2000/svg"><rect width="54" height="54" rx="4" fill="#181819"/><path d="M37.5 15c1.64 0 3 1.36 3 3v13.5c0 1.688-1.36 3-3 3h-7.031l.89 3h2.391c.375 0 .75.375.75.75 0 .422-.375.75-.75.75h-13.5a.74.74 0 01-.75-.75c0-.375.328-.75.75-.75h2.344l.89-3H16.5c-1.688 0-3-1.313-3-3V18c0-1.64 1.313-3 3-3h21zM24.14 37.5h5.672l-.937-3h-3.797l-.937 3zm14.86-6V18c0-.797-.703-1.5-1.5-1.5h-21c-.844 0-1.5.703-1.5 1.5v13.5c0 .844.656 1.5 1.5 1.5h21c.797 0 1.5-.656 1.5-1.5zM24.516 21.234c.28.282.28.797 0 1.078L22.03 24.75l2.485 2.484c.28.282.28.797 0 1.078-.141.141-.328.188-.516.188-.234 0-.422-.047-.563-.188l-3-3c-.28-.28-.28-.796 0-1.078l3-3a.798.798 0 011.079 0zm6 0l3 3c.28.282.28.797 0 1.078l-3 3c-.141.141-.328.188-.516.188-.234 0-.422-.047-.563-.188-.28-.28-.28-.796 0-1.078l2.485-2.484-2.485-2.438c-.28-.28-.28-.796 0-1.078a.798.798 0 011.079 0z" fill="#FB7E3D"/></svg>