<svg width="30" height="30" fill="none" xmlns="http://www.w3.org/2000/svg"><path d="M20.813 10.219L16.03 15l4.782 4.828 2.109-2.062a1.516 1.516 0 011.64-.328c.563.234.938.75.938 1.359V24c0 .844-.703 1.5-1.5 1.5h-5.25c-.61 0-1.172-.328-1.406-.89-.094-.188-.094-.376-.094-.61 0-.375.14-.75.422-1.031l2.11-2.11L15 16.08l-4.828 4.78 2.062 2.11c.422.422.563 1.078.329 1.64-.235.563-.75.891-1.36.891H6A1.48 1.48 0 014.5 24v-5.25c0-.61.328-1.125.89-1.36.188-.093.376-.14.61-.14.375 0 .75.188 1.031.469l2.11 2.11L13.92 15l-4.78-4.781-2.11 2.062a1.516 1.516 0 01-1.64.328c-.563-.234-.891-.75-.891-1.359V6c0-.797.656-1.5 1.5-1.5h5.203c.61 0 1.172.375 1.406.938.094.187.094.375.094.609 0 .375-.14.75-.422 1.031l-2.11 2.11 4.83 4.78 4.781-4.78-2.062-2.11a1.516 1.516 0 01-.328-1.64c.234-.563.75-.938 1.359-.938H24c.797 0 1.5.703 1.5 1.5v5.25c0 .61-.375 1.172-.938 1.406-.187.094-.375.094-.609.094-.375 0-.75-.14-1.031-.422l-2.11-2.11zM6 11.25L11.203 6H6v5.25s0 .047 0 0zM11.25 24L6 18.797V24h5.25zm12.703-5.25L18.75 24H24l-.047-5.25zm-5.25-12.703L24 11.25V6l-5.297.047z" fill="#FB7E3D"/></svg>