<svg width="54" height="54" fill="none" xmlns="http://www.w3.org/2000/svg"><rect width="54" height="54" rx="4" fill="#302F32"/><path d="M35.25 16.5h-10.5a2.25 2.25 0 00-2.25 2.25v.75H21v-.75A3.73 3.73 0 0124.75 15h10.5A3.761 3.761 0 0139 18.75v10.5c0 2.11-1.688 3.75-3.75 3.75h-.75v-1.5h.75a2.25 2.25 0 002.25-2.25v-10.5c0-1.219-1.031-2.25-2.25-2.25zM30 21c1.64 0 3 1.36 3 3v12c0 1.688-1.36 3-3 3H18c-1.688 0-3-1.313-3-3V24c0-1.64 1.313-3 3-3h12zm0 1.5H18c-.844 0-1.5.703-1.5 1.5v3h15v-3c0-.797-.703-1.5-1.5-1.5zm-12 15h12c.797 0 1.5-.656 1.5-1.5v-7.5h-15V36c0 .844.656 1.5 1.5 1.5z" fill="#FB7E3D"/></svg>