<svg width="54" height="54" fill="none" xmlns="http://www.w3.org/2000/svg"><rect width="54" height="54" rx="4" fill="#F2F1F2"/><path d="M25.875 20.25c0-.61.469-1.125 1.125-1.125.61 0 1.125.516 1.125 1.125A1.11 1.11 0 0127 21.375c-.656 0-1.125-.469-1.125-1.125zm.422 9.375c-1.5-1.875-4.922-6.422-4.922-9A5.611 5.611 0 0127 15c3.094 0 5.625 2.531 5.625 5.625 0 2.578-3.469 7.125-4.969 9a.833.833 0 01-1.36 0zm4.36-7.36c.327-.75.468-1.265.468-1.64 0-2.25-1.875-4.125-4.125-4.125a4.131 4.131 0 00-4.125 4.125c0 .375.094.89.422 1.64.281.75.75 1.547 1.219 2.344.797 1.313 1.734 2.578 2.484 3.516.703-.938 1.64-2.203 2.438-3.516.468-.797.937-1.593 1.218-2.343zm1.827 3.188c0 .047-.047.047-.093.047.375-.656.75-1.36 1.03-2.016l5.532-2.203c.703-.281 1.547.235 1.547 1.032v12.703c0 .468-.281.89-.75 1.03l-7.266 2.907c-.14.094-.28.094-.468.047L21.75 36.047 15 38.766a1.1 1.1 0 01-1.5-1.032V25.031c0-.468.234-.89.703-1.031l5.766-2.344c.093.516.234.985.422 1.453L15 25.266v11.906l6-2.39V29.25c0-.375.328-.75.75-.75.375 0 .75.375.75.75v5.438l9 2.578V29.25c0-.375.328-.75.75-.75.375 0 .75.375.75.75v7.922l6-2.39V22.874l-6.516 2.578z" fill="#FB7E3D"/></svg>