<svg width="54" height="54" fill="none" xmlns="http://www.w3.org/2000/svg"><rect width="54" height="54" rx="4" fill="#F2F1F2"/><path d="M25.969 15.234c.328-.14.656-.234 1.031-.234.328 0 .656.094.984.234l10.22 4.594c.468.188.796.656.796 1.172 0 .563-.328 1.031-.797 1.219l-10.219 4.593A2.44 2.44 0 0127 27c-.375 0-.703-.047-1.031-.188L15.75 22.22c-.469-.19-.75-.658-.75-1.22 0-.516.281-.984.75-1.172l10.219-4.594zM27 16.5a.936.936 0 00-.422.094L16.734 21l9.844 4.453c.094.047.235.047.422.047.14 0 .281 0 .375-.047L37.219 21l-9.844-4.406A.883.883 0 0027 16.5zm-8.344 8.813c.188.375 0 .843-.375 1.03L16.734 27l9.844 4.453c.094.047.235.047.422.047.14 0 .281 0 .375-.047L37.219 27l-1.547-.656c-.375-.188-.563-.657-.375-1.032a.777.777 0 01.984-.375l1.922.891c.469.188.797.656.797 1.172 0 .563-.328 1.031-.797 1.219l-10.219 4.593A2.44 2.44 0 0127 33c-.375 0-.703-.047-1.031-.188L15.75 28.22c-.469-.19-.75-.658-.75-1.22 0-.516.281-.984.75-1.172l1.922-.89a.776.776 0 01.984.375zM16.734 33l9.844 4.453c.094.047.235.047.422.047.14 0 .281 0 .375-.047L37.219 33l-1.547-.656c-.375-.188-.563-.657-.375-1.032a.777.777 0 01.984-.375l1.922.891c.469.188.797.656.797 1.172 0 .563-.328 1.031-.797 1.219l-10.219 4.593A2.44 2.44 0 0127 39c-.375 0-.703-.047-1.031-.188L15.75 34.22c-.469-.19-.75-.658-.75-1.22 0-.516.281-.984.75-1.172l1.922-.89a.776.776 0 01.984.375c.188.375 0 .843-.375 1.03L16.734 33z" fill="#FB7E3D"/></svg>