<svg width="54" height="54" fill="none" xmlns="http://www.w3.org/2000/svg"><rect width="54" height="54" rx="4" fill="#302F32"/><path d="M31.453 16.031l-7.5 22.5c-.14.375-.562.563-.984.469-.375-.14-.563-.563-.469-.984l7.5-22.5c.14-.375.563-.563.984-.47.375.142.563.563.47.985zM19.97 21.563L13.875 27l6.094 5.438c.328.28.328.75.047 1.078-.235.328-.75.328-1.032.047l-6.75-6c-.187-.141-.234-.33-.234-.563 0-.188.047-.375.234-.563l6.75-6c.282-.234.797-.234 1.032.094.28.282.28.797-.047 1.032zm15-1.125l6.75 6c.187.187.281.375.281.562a.668.668 0 01-.281.563l-6.75 6c-.282.28-.797.28-1.032-.047-.28-.328-.28-.797.047-1.078L40.078 27l-6.094-5.438c-.328-.234-.328-.75-.047-1.03.235-.329.75-.329 1.032-.095z" fill="#FB7E3D"/></svg>