<svg width="54" height="54" fill="none" xmlns="http://www.w3.org/2000/svg"><rect width="54" height="54" rx="4" fill="#302F32"/><path d="M33 19.5c2.484 0 4.5 2.016 4.5 4.5v10.5c0 2.531-2.016 4.5-4.5 4.5H21c-2.531 0-4.5-1.969-4.5-4.5V24c0-2.484 1.969-4.5 4.5-4.5h5.25v-3.75c0-.375.328-.75.75-.75.375 0 .75.375.75.75v3.75H33zM36 33v-9c0-1.64-1.36-3-3-3H21c-1.688 0-3 1.36-3 3v9h.75c.375 0 .75.375.75.75 0 .422-.375.75-.75.75H18c0 1.688 1.313 3 3 3h12c1.64 0 3-1.313 3-3h-.75a.74.74 0 01-.75-.75c0-.375.328-.75.75-.75H36zm-22.313-7.266c-.14.141-.187.328-.187.516v6c0 .422.328.75.703.75.422 0 .75.375.75.75a.74.74 0 01-.75.75c-1.219 0-2.203-.984-2.203-2.25v-6c0-.563.234-1.172.656-1.594A2.233 2.233 0 0114.25 24c.375 0 .75.375.75.75-.047.422-.375.75-.797.75a.753.753 0 00-.515.234zM39.75 24c1.219 0 2.25 1.031 2.25 2.25v6c0 .61-.281 1.172-.703 1.64-.422.422-.984.61-1.594.61-.375 0-.75-.328-.703-.75 0-.375.328-.75.75-.75.188 0 .375-.047.516-.234a.753.753 0 00.234-.516v-6c0-.375-.375-.75-.75-.75a.74.74 0 01-.75-.75c0-.375.328-.75.75-.75zm-16.5 9c.375 0 .75.375.75.75 0 .422-.375.75-.75.75h-1.5a.74.74 0 01-.75-.75c0-.375.328-.75.75-.75h1.5zm4.5 0c.375 0 .75.375.75.75 0 .422-.375.75-.75.75h-1.5a.74.74 0 01-.75-.75c0-.375.328-.75.75-.75h1.5zm4.5 0c.375 0 .75.375.75.75 0 .422-.375.75-.75.75h-1.5a.74.74 0 01-.75-.75c0-.375.328-.75.75-.75h1.5zm-9.75-9c1.64 0 3 1.36 3 3 0 1.688-1.36 3-3 3-1.688 0-3-1.313-3-3 0-1.64 1.313-3 3-3zm0 4.5c.797 0 1.5-.656 1.5-1.5 0-.797-.703-1.5-1.5-1.5-.844 0-1.5.703-1.5 1.5 0 .844.656 1.5 1.5 1.5zm9-4.5c1.64 0 3 1.36 3 3 0 1.688-1.36 3-3 3-1.688 0-3-1.313-3-3 0-1.64 1.313-3 3-3zm0 4.5c.797 0 1.5-.656 1.5-1.5 0-.797-.703-1.5-1.5-1.5-.844 0-1.5.703-1.5 1.5 0 .844.656 1.5 1.5 1.5z" fill="#FB7E3D"/></svg>