<svg width="81" height="80" fill="none" xmlns="http://www.w3.org/2000/svg"><path d="M51.25 14.125c4.125-1 8.625.125 11.875 3.25 3.125 3.25 4.25 7.75 3.25 11.875C70 31.5 72.5 35.5 72.5 40c0 4.625-2.5 8.625-6.125 10.875 1 4.125-.125 8.625-3.25 11.75C59.875 65.875 55.375 67 51.25 66 49 69.625 45 72 40.375 72c-4.5 0-8.5-2.375-10.75-6C25.5 67 21 65.875 17.75 62.625 14.625 59.5 13.5 55 14.5 50.875c-3.625-2.25-6-6.25-6-10.875 0-4.5 2.375-8.5 6-10.75-1-4.125.125-8.625 3.25-11.875 3.25-3.125 7.75-4.25 11.875-3.25C31.875 10.5 35.875 8 40.5 8c4.5 0 8.5 2.5 10.75 6.125zM30.625 16.5l-.75-.25a10.586 10.586 0 00-13.25 13.25l.25.75-.75.375C12.75 32.5 10.5 36 10.5 40c0 4.125 2.25 7.625 5.625 9.5l.75.375-.25.75a10.586 10.586 0 0013.25 13.25l.75-.25.375.75C32.875 67.75 36.375 70 40.5 70c4 0 7.5-2.25 9.375-5.625l.375-.75.75.25a10.586 10.586 0 0013.25-13.25l-.25-.75.75-.375c3.375-1.875 5.75-5.375 5.75-9.5 0-4-2.375-7.5-5.75-9.375L64 30.25l.25-.75A10.586 10.586 0 0051 16.25l-.75.25-.375-.75C48 12.375 44.5 10 40.5 10c-4.125 0-7.625 2.375-9.5 5.75l-.375.75z" fill="#FB7E3D"/><path d="M37.781 48.188a.98.98 0 001.375 0l15-15a.98.98 0 000-1.376.98.98 0 00-1.375 0l-14.375 14.25-6.25-6.25a.98.98 0 00-1.375 0 .98.98 0 000 1.376l7 7z" fill="#029DFA"/></svg>