<svg width="136" height="32" fill="none" xmlns="http://www.w3.org/2000/svg"><g clip-path="url(#clip0_260_9799)" fill="#949197"><path d="M39.72 9.347h3.382v13.658h-3.383V9.347zm4.723 8.5c0-3.377 2.075-5.393 5.277-5.393s5.277 2.016 5.277 5.394-2.03 5.405-5.277 5.405c-3.247 0-5.277-1.97-5.277-5.405zm7.16 0c0-1.857-.733-2.95-1.883-2.95s-1.871 1.127-1.871 2.95c0 1.825.71 2.928 1.871 2.928s1.883-1.035 1.883-2.916v-.011zm4.668 5.822h3.247a1.746 1.746 0 001.827 1.014c1.285 0 1.962-.698 1.962-1.712V21.08h-.068a3.2 3.2 0 01-3.078 1.847c-2.47 0-4.104-1.88-4.104-5.112 0-3.231 1.556-5.27 4.149-5.27a3.24 3.24 0 013.112 1.982v-1.88H66.7v10.246c0 2.466-2.177 3.998-5.39 3.998-2.988 0-4.848-1.34-5.04-3.21v-.01zm7.047-5.832c0-1.644-.756-2.68-1.95-2.68-1.196 0-1.929 1.024-1.929 2.68 0 1.655.722 2.59 1.928 2.59 1.207 0 1.95-.913 1.95-2.58v-.01zm4.657 0c0-3.378 2.074-5.394 5.276-5.394s5.288 2.016 5.288 5.394-2.03 5.404-5.288 5.404c-3.258 0-5.276-1.959-5.276-5.393v-.011zm7.16 0c0-1.858-.734-2.95-1.884-2.95s-1.815 1.137-1.815 2.972.71 2.928 1.86 2.928c1.15 0 1.838-1.047 1.838-2.928v-.022zm4.69-7.646a1.721 1.721 0 012.02-1.742 1.727 1.727 0 011.388 1.324 1.72 1.72 0 01-.696 1.786c-.28.195-.612.303-.954.31a1.649 1.649 0 01-1.626-.995 1.643 1.643 0 01-.132-.66v-.023zm0 2.477h3.382v10.337h-3.382V12.668zm15.661 5.169c0 3.378-1.5 5.303-4.07 5.303a3.226 3.226 0 01-3.157-1.914h-.068v5.09h-3.383v-13.67h3.383v1.846h.067a3.231 3.231 0 013.135-1.993c2.593.046 4.138 1.982 4.138 5.36l-.045-.022zm-3.382 0c0-1.644-.757-2.691-1.94-2.691-1.184 0-1.94 1.058-1.95 2.69-.012 1.633.766 2.68 1.95 2.68 1.183 0 1.94-1.024 1.94-2.657v-.022zm9.189-5.405c2.807 0 4.51 1.329 4.588 3.457h-3.078c0-.732-.608-1.194-1.544-1.194-.937 0-1.353.36-1.353.89 0 .529.372.698 1.127.855l2.165.44c2.064.439 2.942 1.272 2.942 2.837 0 2.14-1.95 3.513-4.825 3.513s-4.758-1.373-4.905-3.48h3.258c.103.767.711 1.217 1.704 1.217.991 0 1.443-.327 1.443-.867s-.316-.653-1.128-.822l-1.95-.417c-2.019-.416-3.079-1.486-3.079-3.062.023-2.027 1.838-3.345 4.635-3.345v-.022zm16.134 10.55h-3.259v-1.925h-.067a2.943 2.943 0 01-2.999 2.15 3.602 3.602 0 01-3.59-2.373 3.593 3.593 0 01-.199-1.511v-6.677h3.383v5.9c0 1.227.632 1.88 1.68 1.88a1.723 1.723 0 001.714-1.947v-5.833h3.383l-.046 10.336zm1.635-10.336h3.27v1.993h.067a2.997 2.997 0 012.943-2.184 2.697 2.697 0 012.876 2.252h.067a3.184 3.184 0 013.18-2.252 3.285 3.285 0 013.196 2.161c.156.433.22.893.186 1.352v7.037h-3.382v-6.137c0-1.126-.508-1.644-1.454-1.644a1.476 1.476 0 00-1.478 1.667v6.114h-3.213v-6.182c0-1.036-.507-1.599-1.432-1.599a1.519 1.519 0 00-1.13.508 1.51 1.51 0 00-.37 1.181v6.092h-3.383l.057-10.36zM30.26 9.966a14.914 14.914 0 00-2.256-3.625A15.25 15.25 0 0016.827.756 15.275 15.275 0 005.222 5.388a15.231 15.231 0 00-4.245 11.74 15.219 15.219 0 005.965 10.967c1.1.853 2.314 1.547 3.608 2.06a15.115 15.115 0 005.717 1.126 15.299 15.299 0 0010.785-4.48 15.258 15.258 0 004.47-10.777 15.06 15.06 0 00-1.263-6.058zM16.255 3.852c1.76 0 3.5.384 5.096 1.126-.39.168-.799.285-1.218.35a6.449 6.449 0 00-5.468 5.461 3.376 3.376 0 01-3.056 2.983c-1.38.2-2.657.839-3.643 1.823a6.45 6.45 0 00-1.825 3.638 3.274 3.274 0 01-.89 1.96 12.146 12.146 0 01.72-11.711A12.19 12.19 0 0116.267 3.83l-.011.022zM6.93 23.906c.135-.124.27-.237.406-.372a6.167 6.167 0 001.827-3.637c.072-.777.42-1.504.98-2.049a3.193 3.193 0 012.041-.968 6.464 6.464 0 003.643-1.823 6.448 6.448 0 001.826-3.638c.049-.814.398-1.58.98-2.15a3.238 3.238 0 012.064-.935 6.182 6.182 0 003.383-1.61c1.062.88 1.963 1.94 2.66 3.13a.975.975 0 01-.146.157 3.238 3.238 0 01-2.04.991 6.442 6.442 0 00-3.648 1.82 6.426 6.426 0 00-1.821 3.641 3.376 3.376 0 01-3.033 3.018 6.499 6.499 0 00-3.658 1.82 6.483 6.483 0 00-1.845 3.64c-.06.551-.25 1.08-.552 1.544a12.278 12.278 0 01-3.067-2.579zm9.325 4.346a12.241 12.241 0 01-3.383-.473c.376-.7.62-1.463.722-2.252a3.376 3.376 0 013.021-3.017 6.463 6.463 0 003.65-1.82 6.449 6.449 0 001.83-3.641 3.376 3.376 0 013.022-3.018 6.443 6.443 0 002.886-1.126 12.167 12.167 0 01-2.117 10.524 12.197 12.197 0 01-9.631 4.767v.056z"/></g><defs><clipPath id="clip0_260_9799"><path fill="#fff" transform="translate(.4)" d="M0 0h135.055v32H0z"/></clipPath></defs></svg>