<svg width="155" height="32" fill="none" xmlns="http://www.w3.org/2000/svg"><g clip-path="url(#clip0_260_9802)" fill="#949197"><path d="M50.067 25.492a3.465 3.465 0 01-2.175-.621 2.022 2.022 0 01-.82-1.697V11.168a.335.335 0 01.226-.36.341.341 0 01.151-.015h2.188c.248 0 .365.13.365.375v11.074c0 .492.221.738.677.738.194.008.387-.014.573-.065.26 0 .404.078.417.31l.195 1.62a.333.333 0 01-.174.363.341.341 0 01-.138.038c-.48.158-.98.24-1.485.246zm12.308-1.385a6.155 6.155 0 01-3.907 1.398 6.155 6.155 0 01-3.907-1.398 5.166 5.166 0 01-1.508-3.646c0-1.365.542-2.675 1.508-3.645a6.182 6.182 0 017.814 0 5.243 5.243 0 011.471 3.639 5.25 5.25 0 01-1.47 3.64v.012zm-5.756-1.71a2.782 2.782 0 003.724 0 2.892 2.892 0 000-3.807 2.783 2.783 0 00-3.724 0 2.891 2.891 0 000 3.808zm19.275-6.645c.247 0 .364.13.364.376v9.286a4.202 4.202 0 01-1.445 3.328 5.489 5.489 0 01-3.79 1.296 6.12 6.12 0 01-3.53-.972 3.896 3.896 0 01-1.706-2.59c0-.26 0-.376.352-.376h2.188a.483.483 0 01.43.298c.142.394.424.721.794.92.45.231.952.347 1.459.337a2.316 2.316 0 001.68-.596 2.197 2.197 0 00.612-1.62v-.815a4.38 4.38 0 01-2.709.842 5.078 5.078 0 01-3.699-1.412 5.165 5.165 0 01-1.464-3.6c0-1.344.525-2.635 1.464-3.6a5.096 5.096 0 013.699-1.4c1-.026 1.98.29 2.774.894v-.207a.335.335 0 01.217-.355.34.34 0 01.148-.02l2.162-.014zM70.84 23.16a2.303 2.303 0 001.784-.764 3.161 3.161 0 000-3.885 2.277 2.277 0 00-1.772-.751 2.357 2.357 0 00-1.81.764 2.736 2.736 0 00-.703 1.942 2.788 2.788 0 00.69 1.93 2.359 2.359 0 001.81.764zm16.657.946a6.182 6.182 0 01-7.814 0 5.255 5.255 0 01-1.472-3.645c0-1.359.527-2.665 1.472-3.646a6.194 6.194 0 017.814 0 5.243 5.243 0 011.471 3.64c0 1.355-.527 2.66-1.47 3.638v.013zm-5.77-1.71a2.608 2.608 0 001.876.713 2.618 2.618 0 001.863-.712 2.93 2.93 0 000-3.808 2.607 2.607 0 00-1.863-.712 2.62 2.62 0 00-1.875.712 2.93 2.93 0 000 3.808zm11.944-8.845a1.894 1.894 0 01-2.488 0 1.568 1.568 0 01-.494-1.14 1.559 1.559 0 01.495-1.14 1.933 1.933 0 012.487 0 1.566 1.566 0 01.365 1.761 1.576 1.576 0 01-.365.52zm.274 11.941a3.517 3.517 0 01-2.175-.621 2.048 2.048 0 01-.808-1.697V16.13a.336.336 0 01.378-.376h2.188c.247 0 .364.13.364.376v6.113c0 .492.222.738.665.738.197.007.395-.015.586-.065.26 0 .403.078.416.31l.196 1.62a.335.335 0 01-.313.401 4.964 4.964 0 01-1.497.247zm9.859-10.05a5.132 5.132 0 013.725 1.399 5.29 5.29 0 010 7.24 5.083 5.083 0 01-3.725 1.412 4.495 4.495 0 01-2.721-.843v4.676c0 .246-.131.363-.378.363h-2.188a.316.316 0 01-.278-.086.31.31 0 01-.087-.277v-10.62a.67.67 0 00-.457-.737.683.683 0 00-.311-.027h-.43c-.286 0-.43-.104-.43-.311v-1.529a.412.412 0 01.3-.427 3.93 3.93 0 011.406-.233 2.42 2.42 0 012.358 1.295 4.408 4.408 0 013.216-1.295zm-2.031 6.955a2.484 2.484 0 001.797.763 2.492 2.492 0 001.798-.763 2.788 2.788 0 00.716-1.982 2.754 2.754 0 00-.716-1.981 2.499 2.499 0 00-3.595 0 2.848 2.848 0 00-.69 1.981c-.027.723.219 1.43.69 1.982zm13.335 3.095a6.312 6.312 0 01-3.348-.803 3.16 3.16 0 01-1.51-2.292c0-.26.092-.39.377-.39h1.916a.493.493 0 01.429.286c.273.699.989 1.049 2.136 1.049.4.018.797-.062 1.159-.233a.759.759 0 00.443-.635c0-.337-.208-.57-.625-.725a7.08 7.08 0 00-1.524-.324 14.543 14.543 0 01-1.823-.324 2.998 2.998 0 01-1.524-.868 2.745 2.745 0 01-.216-3.192c.199-.324.463-.604.776-.823a5.388 5.388 0 013.151-.829 5.781 5.781 0 013.074.765 2.882 2.882 0 011.433 2.033c0 .259-.118.389-.352.389h-1.927a.406.406 0 01-.391-.233 1.302 1.302 0 00-.677-.687 2.307 2.307 0 00-1.121-.259 2.278 2.278 0 00-1.107.22.648.648 0 00-.416.596.834.834 0 00.625.764c.5.188 1.02.318 1.549.389.61.08 1.214.192 1.811.336a2.996 2.996 0 011.524.868c.219.24.388.52.498.824.109.304.156.628.14.95a2.597 2.597 0 01-1.211 2.253 5.718 5.718 0 01-3.269.895zm18.246-.647a.339.339 0 01-.065.263.356.356 0 01-.234.138 5.058 5.058 0 01-1.471.246 2.905 2.905 0 01-2.606-1.126 4.728 4.728 0 01-3.32 1.126 4.062 4.062 0 01-3.048-1.178 4.229 4.229 0 01-1.159-3.121v-5.064c0-.247.117-.376.364-.376h2.189c.247 0 .364.13.364.376v4.675a2.287 2.287 0 00.56 1.593 1.952 1.952 0 001.498.609 2.17 2.17 0 001.563-.57c.198-.203.353-.445.454-.71.1-.265.145-.548.132-.831v-4.766c0-.247.116-.376.364-.376h2.214c.248 0 .365.13.365.376v6.1c0 .505.222.75.652.75a2.01 2.01 0 00.598-.064.344.344 0 01.291.052.338.338 0 01.14.259l.155 1.619zm20.695 0a.338.338 0 01.003.142.329.329 0 01-.302.26c-.484.156-.99.24-1.499.246a3.496 3.496 0 01-2.175-.622 2.037 2.037 0 01-.65-.74 2.026 2.026 0 01-.222-.957v-3.043a2.286 2.286 0 00-.547-1.593 1.847 1.847 0 00-1.458-.609 1.636 1.636 0 00-1.303.57c-.344.434-.52.976-.495 1.528v4.78c0 .245-.117.375-.364.375h-2.202a.344.344 0 01-.281-.096.332.332 0 01-.08-.129.323.323 0 01-.017-.15V20.13a2.384 2.384 0 00-.507-1.593 1.696 1.696 0 00-1.302-.609 1.898 1.898 0 00-1.433.57c-.372.42-.564.969-.534 1.528v4.78a.336.336 0 01-.226.36.341.341 0 01-.152.015h-2.122c-.248 0-.366-.13-.366-.376v-6.1a.664.664 0 00-.19-.574.686.686 0 00-.577-.19h-.43c-.287 0-.431-.104-.431-.31v-1.529a.415.415 0 01.301-.427 3.916 3.916 0 011.406-.234 2.46 2.46 0 012.318 1.192 4.42 4.42 0 013.308-1.192 3.751 3.751 0 013.087 1.373 4.298 4.298 0 013.412-1.373 4.134 4.134 0 013.086 1.179 4.212 4.212 0 011.16 3.121v2.5c0 .492.221.738.638.738.202.01.404-.012.599-.065.269 0 .412.104.429.311l.118 1.62zM1.334 14.07a17.719 17.719 0 016.321-9.688c3.135-2.438 7-3.762 10.98-3.762 3.98 0 7.845 1.324 10.98 3.761a17.722 17.722 0 016.323 9.689h-1.563a12.67 12.67 0 00-7.385 2.24 3.72 3.72 0 01-.39.246h-.183a3.723 3.723 0 01-.39-.246 13.297 13.297 0 00-7.392-2.241c-2.632 0-5.206.78-7.39 2.241-.125.09-.256.173-.391.246h-.182a3.723 3.723 0 01-.391-.246 12.67 12.67 0 00-7.385-2.24H1.334zm30.227 8.12a4.405 4.405 0 012.814-.92h2.096v-4.157h-2.096a8.34 8.34 0 00-4.988 1.58 4.758 4.758 0 01-5.627 0 8.891 8.891 0 00-10.12 0 4.758 4.758 0 01-5.625 0 8.341 8.341 0 00-5.053-1.58H.8v4.158h2.096a4.405 4.405 0 012.814.92 8.864 8.864 0 0010.106 0 4.43 4.43 0 012.813-.92 4.379 4.379 0 012.813.92 8.891 8.891 0 0010.12 0zm0 7.434a4.405 4.405 0 012.814-.92h2.096v-4.157h-2.096a8.34 8.34 0 00-4.988 1.58 4.758 4.758 0 01-5.627 0 8.89 8.89 0 00-10.12 0 4.758 4.758 0 01-5.625 0 8.34 8.34 0 00-5.053-1.58H.8v4.158h2.096a4.405 4.405 0 012.814.92 8.864 8.864 0 0010.106 0 4.431 4.431 0 012.813-.92 4.379 4.379 0 012.813.92 8.891 8.891 0 0010.12 0z"/></g><defs><clipPath id="clip0_260_9802"><path fill="#fff" transform="translate(.456)" d="M0 0h153.743v32H0z"/></clipPath></defs></svg>