<svg width="137" height="32" fill="none" xmlns="http://www.w3.org/2000/svg"><g clip-path="url(#clip0_260_9786)" fill="#949197"><path d="M33.22 7.806h3.123v15.162h-3.122V7.806zm4.872 9.968c0-1.09.32-2.157.922-3.064a5.475 5.475 0 012.458-2.028c1-.416 2.1-.523 3.161-.308a5.451 5.451 0 012.797 1.516 5.522 5.522 0 011.488 2.829 5.55 5.55 0 01-.323 3.185 5.499 5.499 0 01-2.026 2.466 5.433 5.433 0 01-3.045.913 5.355 5.355 0 01-3.865-1.603 5.473 5.473 0 01-1.568-3.906zm7.826 0a2.405 2.405 0 00-.43-1.311 2.357 2.357 0 00-3.642-.295 2.4 2.4 0 00-.487 2.599c.182.433.486.803.874 1.063.39.26.846.4 1.312.4a2.296 2.296 0 001.707-.711 2.332 2.332 0 00.645-1.745h.021zM61.31 12.58v9.874c0 3.484-2.705 4.963-5.443 4.963a5.169 5.169 0 01-2.796-.558 5.222 5.222 0 01-2.085-1.96l2.633-1.532a2.354 2.354 0 002.353 1.312 2.066 2.066 0 001.685-.559 2.1 2.1 0 00.646-1.666V21.5a3.649 3.649 0 01-3.008 1.343 5.182 5.182 0 01-3.68-1.536 5.268 5.268 0 01-1.524-3.71 5.27 5.27 0 011.524-3.71 5.183 5.183 0 013.68-1.536 3.65 3.65 0 013.008 1.343v-1.05l3.008-.062zm-3.007 4.985a2.534 2.534 0 00-.37-1.427 2.505 2.505 0 00-1.098-.973 2.48 2.48 0 00-2.756.477 2.537 2.537 0 00-.59 2.756 2.505 2.505 0 002.316 1.58 2.316 2.316 0 001.78-.647 2.352 2.352 0 00.718-1.766zm4.767.209c0-1.09.32-2.155.921-3.061a5.473 5.473 0 012.454-2.029 5.426 5.426 0 015.956 1.198 5.523 5.523 0 011.493 2.824 5.55 5.55 0 01-.315 3.184 5.499 5.499 0 01-2.017 2.47c-.9.604-1.957.925-3.038.923a5.365 5.365 0 01-3.876-1.599 5.483 5.483 0 01-1.578-3.91zm7.827 0a2.406 2.406 0 00-.431-1.312 2.377 2.377 0 00-1.08-.854 2.356 2.356 0 00-2.565.564 2.41 2.41 0 00-.48 2.602c.183.433.488.803.878 1.061.39.26.848.396 1.315.395a2.294 2.294 0 001.707-.711 2.331 2.331 0 00.645-1.745h.01zM75.424 9.8c0-.37.109-.731.312-1.038.204-.307.493-.547.832-.688a1.838 1.838 0 012.019.405 1.872 1.872 0 01.401 2.035 1.86 1.86 0 01-.682.838 1.842 1.842 0 01-1.03.315 1.865 1.865 0 01-1.303-.553 1.896 1.896 0 01-.549-1.315zm.302 2.78h3.122v10.388h-3.122V12.58zm16.486 5.194a5.272 5.272 0 01-1.346 3.795 5.17 5.17 0 01-3.619 1.713 3.844 3.844 0 01-1.704-.274 3.874 3.874 0 01-1.418-.995v5.13h-3.122V12.58h3.122v.976a3.835 3.835 0 013.122-1.26A5.171 5.171 0 0190.856 14a5.257 5.257 0 011.357 3.775zm-3.122 0a2.494 2.494 0 00-.445-1.36 2.44 2.44 0 00-3.773-.303 2.495 2.495 0 00-.499 2.694c.19.45.506.832.91 1.1.404.268.877.41 1.361.408a2.333 2.333 0 001.787-.717 2.393 2.393 0 00.659-1.822zm12.624 2.077c0 2.393-2.082 3.41-4.288 3.41a4.49 4.49 0 01-2.594-.552 4.54 4.54 0 01-1.84-1.924l2.686-1.532a1.682 1.682 0 001.738 1.228c.739 0 1.113-.231 1.113-.65 0-1.144-5.068-.536-5.068-4.135 0-2.266 1.894-3.4 4.038-3.4a4.488 4.488 0 012.344.54 4.54 4.54 0 011.736 1.675l-2.685 1.427a1.512 1.512 0 00-1.384-.913c-.541 0-.865.21-.865.577 0 1.196 5.069.409 5.069 4.25zm11.314-7.271v10.388h-3.123v-.976a3.554 3.554 0 01-1.315.998 3.524 3.524 0 01-1.62.293c-2.082 0-3.861-1.5-3.861-4.302v-6.4h3.122v5.927a1.74 1.74 0 00.467 1.364 1.693 1.693 0 001.333.525c1.125 0 1.915-.671 1.915-2.098V12.58h3.082zm17.692 4.008v6.38h-3.123V16.86c0-1.05-.489-1.7-1.478-1.7s-1.613.724-1.613 1.952v5.855h-3.122V16.86c0-1.05-.489-1.7-1.478-1.7s-1.614.724-1.614 1.952v5.855h-3.122V12.58h3.122v.955a3.193 3.193 0 011.23-.972 3.16 3.16 0 011.539-.266 3.032 3.032 0 012.695 1.364 3.404 3.404 0 011.32-1.07 3.371 3.371 0 011.668-.294c2.435 0 3.976 1.7 3.976 4.291zM14.621 5.078V.618H.675v30.639h13.946v-4.46a10.728 10.728 0 01-7.617-3.18 10.905 10.905 0 01-3.155-7.68c0-2.88 1.135-5.642 3.155-7.679a10.728 10.728 0 017.617-3.18zm.001 0v21.72a10.73 10.73 0 007.617-3.18 10.905 10.905 0 003.155-7.68c0-2.88-1.135-5.643-3.155-7.68a10.728 10.728 0 00-7.617-3.18zm118.721 7.439a2.3 2.3 0 002.29-2.308 2.3 2.3 0 00-2.29-2.309 2.3 2.3 0 00-2.29 2.309 2.3 2.3 0 002.29 2.308z"/></g><defs><clipPath id="clip0_260_9786"><path fill="#fff" transform="translate(.252)" d="M0 0h136.149v32H0z"/></clipPath></defs></svg>