<svg width="122" height="28" fill="none" xmlns="http://www.w3.org/2000/svg"><path d="M7.265 24.543L5.967 28C1.988 27.923 0 26.023 0 22.306V0h4.397v7.815h3.73l-.943 4.046H4.397v10.445c0 .89.249 1.487.747 1.788.497.302 1.202.453 2.12.453v-.004zm21.951 3.296h-4.123l-2.826-10.483L19.4 27.838h-4.2L8.874 8.166h4.712l3.573 12.015 3.18-12.015h4.085l3.299 12.015L30.94 8.166h4.636l-6.36 19.673zM51.95 15.08v5.182c0 2.198-.603 4.018-1.805 5.46-1.206 1.44-3.023 2.159-5.46 2.159-2.436 0-4.273-.726-5.518-2.18-1.245-1.453-1.865-3.265-1.865-5.439V15.08c0-2.486.634-4.393 1.904-5.715 1.269-1.322 3.095-1.984 5.476-1.984 2.38 0 4.057.687 5.34 2.061 1.283 1.374 1.925 3.254 1.925 5.634l.003.004zm-4.28 5.575V15.08c0-.76-.092-1.381-.274-1.865-.182-.484-.452-.824-.806-1.02-.355-.197-.667-.32-.944-.372a5.172 5.172 0 00-.96-.077c-2.04 0-3.065 1.111-3.065 3.338v5.574c0 1.988 1.02 2.984 3.065 2.984.862 0 1.577-.249 2.138-.747.561-.498.845-1.241.845-2.237v-.003zM84.4 10.108a11.782 11.782 0 00-3.023-.392c-1.02 0-1.942.228-2.77.687-.823.46-1.237 1.118-1.237 1.984V27.78h-2.198V8.106h2.198l-.12 1.375c1.231-1.126 2.855-1.69 4.87-1.69.891 0 1.845.105 2.869.315l-.59 2.002zm17.828 17.672h-2.16l.158-2.353a6.12 6.12 0 01-2.377 1.805c-.957.418-1.918.628-2.886.628-4.922 0-7.383-2.395-7.383-7.188V7.756h2.198v13.193c0 1.676.463 2.92 1.392 3.73.929.814 2.191 1.217 3.79 1.217 3.376 0 5.066-1.647 5.066-4.947V7.756h2.199v20.023h.003zm6.36-18.338c1.336-1.125 3.209-1.69 5.617-1.69 1.361 0 2.528.25 3.496.747 2.223 1.02 3.338 2.92 3.338 5.694v13.586h-2.16V14.31c0-1.36-.368-2.423-1.101-3.18-.891-.916-2.219-1.375-3.986-1.375-1.768 0-3.451.445-5.046 1.336v16.69h-2.198V8.105h2.198l-.158 1.336zM58.04 24.89l-1.661-1.588 5.02-5.165-5.09-5.056 1.731-1.732 6.753 6.753v.035L58.04 24.89zm6.718 0l-1.662-1.588 5.021-5.165-5.09-5.056 1.731-1.732 6.753 6.753v.035l-6.753 6.753z" fill="#fff"/></svg>