<svg width="367" height="204" fill="none" xmlns="http://www.w3.org/2000/svg"><path opacity=".5" d="M420.33 397.98h-.05l-.94-18.47h1v-.49h-1.02l-.9-17.64h1.92v-.47h-1.95l-.86-16.86h2.81v-.45h-2.83l-.82-16.14h3.65v-.43h-3.68l-.79-15.45h4.47v-.41h-4.49l-.76-14.82h5.24v-.4h-5.26l-.73-14.22h5.99v-.38h-6.01l-.7-13.65h6.71v-.37h-6.73l-.67-13.12h7.4v-.35h-7.41l-.64-12.62h8.06v-.34h-8.08l-.62-12.15h8.7v-.33h-8.71l-.6-11.7h9.31v-.31h-9.33l-.58-11.28h9.9v-.3h-9.92l-.56-10.88h10.48v-.29h-10.49l-.54-10.5h11.03v-.28h-11.04l-.52-10.14h11.56v-.27h-11.57l-.5-9.8h12.07v-.26h-12.09l-.48-9.48h12.57v-.25h-12.58l-.47-9.17h13.05v-.25h-13.07l-.45-8.88h13.52v-.24H406.8l-.44-8.6h13.97v-.23h-13.98l-.43-8.33h14.41v-.22h-14.42l-.41-8.08h14.83v-.22h-14.84l-.4-7.83h15.24v-.21h-15.25l-.39-7.6h15.64v-.2h-15.65l-.38-7.38h16.03v-.2h-16.04l-.37-7.17h16.4v-.19h-16.41l-.36-6.96h16.32l.45 5.31v-5.5h-.02l-.57-6.77h.59v-.18h-.61l-.56-6.58h1.16v-.18h-1.18l-.54-6.4h1.72v-.17h-1.74l-.44-5.23h-.42l.44 5.23H402.5l-.27-5.23h-.42l.26 5.23h-15.65l-.09-5.23h-.42l.09 5.23h-15.65l.09-5.23h-.42l-.09 5.23h-15.65l.26-5.23h-.42l-.27 5.23H338.2l.44-5.23h-.42l-.44 5.23h-15.65l.62-5.23h-.42l-.62 5.23h-15.65l.79-5.23h-.42l-.8 5.23h-15.65l.97-5.23h-.42l-.97 5.23h-15.65l1.15-5.23h-.42l-1.15 5.23h-15.65l1.32-5.23h-.42l-1.33 5.23h-15.65l1.5-5.23h-.42l-1.5 5.23h-15.65l1.68-5.23h-.42l-1.68 5.23h-15.65l1.85-5.23h-.42l-1.86 5.23h-15.65l2.03-5.23h-.42l-2.03 5.23h-15.65l2.21-5.23h-.42l-2.21 5.23H161.4l2.38-5.23h-.42l-2.39 5.23h-.32l-.08.17h.32l-2.92 6.4h-.31l-.08.18h.31l-3 6.58h-.31l-.08.18h.31l-3.09 6.77h-.3l-.09.19h.3l-3.18 6.96h-.3l-.09.19h.3l-3.27 7.17h-.29l-.09.2h.29l-3.37 7.38h-.28l-.09.2h.28l-3.47 7.6h-.28l-.1.21h.28l-3.57 7.83h-.27l-.1.22h.27l-3.68 8.08h-.26l-.1.22h.26l-3.8 8.33h-.26l-.11.23h.26l-3.92 8.6h-.25l-.11.24h.25l-4.05 8.88h-.24l-.11.25h.24l-4.18 9.17h-.23l-.12.25h.23l-4.32 9.48h-.23l-.12.26h.23l-4.47 9.8h-.22l-.12.27h.22l-4.63 10.14h-.21l-.13.28h.21l-4.79 10.5h-.2l-.13.29h.2l-4.96 10.88h-.19l-.14.3h.19l-5.15 11.28h-.18l-.14.31h.18l-5.34 11.7h-.17l-.15.33h.17l-5.54 12.15h-.16l-.15.34h.16l-5.76 12.62h-.15l-.16.35h.15l-5.99 13.12h-.14l-.17.37h.14l-6.23 13.65h-.13l-.17.38h.13l-6.49 14.22h-.12l-.18.4h.11l-6.76 14.82h-.1l-.19.41h.1l-7.05 15.45h-.09l-.2.43h.09l-7.36 16.14h-.08l-.21.45h.08l-7.69 16.86h-.06l-.21.47h.06l-8.04 17.64h-.05l-.22.49h.05l-8.48 18.47h-.03l-.23.52h418.33v-.52h-.01zm-3.52-54.38h-25.29l-.28-16.14H416l.81 16.14zM386.58 85.22l.12 7.38h-17.04l.12-7.38h16.8zm-16.8-.2l.12-7.17h16.56l.12 7.17h-16.8zm-.33-7.36H352.9l.35-6.96h16.33l-.12 6.96h-.01zm.2 15.14h17.05l.12 7.6h-17.3l.12-7.6h.01zM199.38 281.36l3.45-13.65h22.8l-3 13.65h-23.25zm23.17.38l-3.13 14.22h-23.73l3.59-14.22h23.27zm-19.62-14.4l3.32-13.12h22.35l-2.89 13.12h-22.79.01zm75.72-158.68l-1.5 8.08h-17.84l1.77-8.08h17.57zm-17.53-.21l1.71-7.83h17.31l-1.46 7.83h-17.57.01zm15.98 8.51l-1.55 8.33h-18.12l1.82-8.33h17.85zm-1.59 8.57l-1.6 8.6H255.5l1.88-8.6h18.13zm-1.64 8.83l-1.65 8.88h-18.71l1.94-8.88h18.42zm-1.7 9.12l-1.71 9.17h-19.02l2.01-9.17h18.72zm-1.75 9.43l-1.76 9.48h-19.34l2.08-9.48h19.03-.01zm-1.82 9.74l-1.82 9.8h-19.67l2.15-9.8h19.35-.01zm-1.87 10.07l-1.89 10.14h-20.01l2.22-10.14h19.68zm-1.94 10.43l-1.95 10.5h-20.37l2.3-10.5h20.02zm-2.01 10.8l-2.02 10.88h-20.73l2.38-10.88h20.38-.01zm-2.08 11.18l-2.1 11.28h-21.11l2.47-11.28h20.74zm-2.16 11.6l-2.18 11.7h-21.51l2.56-11.7h21.13zm-2.24 12.03l-2.26 12.15h-21.92l2.66-12.15h21.52zm-2.32 12.48l-2.35 12.62h-22.34l2.76-12.62h21.93zm.6 0h21.93l-1.92 12.62h-22.34l2.34-12.62h-.01zm.06-.33l2.25-12.15h21.52l-1.85 12.15h-21.92zm2.31-12.48l2.17-11.7h21.12l-1.78 11.7h-21.51zm2.22-12.02l2.09-11.28H282l-1.72 11.28h-21.11zm2.15-11.58l2.02-10.88h20.37l-1.66 10.88h-20.73zm2.07-11.18l1.95-10.5h20.02l-1.6 10.5h-20.37zm2-10.78l1.88-10.14h19.68l-1.55 10.14h-20.01zm1.93-10.42l1.82-9.8h19.35l-1.49 9.8h-19.68zm1.86-10.06l1.76-9.48h19.03l-1.44 9.48h-19.35zm1.8-9.74l1.7-9.17h18.72l-1.4 9.17h-19.02zm1.75-9.41l1.64-8.88h18.42l-1.35 8.88h-18.71zm1.68-9.12l1.59-8.6h18.13l-1.31 8.6h-18.41zm1.64-8.83l1.54-8.33h17.85l-1.27 8.33h-18.12zm1.58-8.55l1.5-8.08h17.57l-1.23 8.08h-17.84zm1.54-8.29l1.45-7.83h17.31l-1.19 7.83h-17.57zm1.49-8.05l1.41-7.6h17.05l-1.16 7.6h-17.3zm-.47 0h-17.3l1.66-7.6h17.05l-1.41 7.6zm-17.78 0h-17.3l1.92-7.6h17.05l-1.67 7.6zm-.04.22l-1.72 7.83h-17.56l1.98-7.83h17.31-.01zm-1.77 8.04l-1.78 8.08h-17.84l2.04-8.08h17.58zm-1.83 8.3l-1.83 8.33h-18.12l2.1-8.33h17.85zm-1.88 8.57l-1.89 8.6h-18.41l2.17-8.6h18.13zm-1.94 8.83l-1.95 8.88h-18.71l2.24-8.88h18.42zm-2.01 9.12l-2.02 9.17H231.9l2.32-9.17h18.72zm-2.07 9.43l-2.08 9.48h-19.34l2.4-9.48h19.03-.01zm-2.14 9.74l-2.16 9.8H226.9l2.48-9.8h19.35zm-2.22 10.07l-2.23 10.14h-20.01l2.56-10.14h19.68zm-2.29 10.43l-2.31 10.5h-20.36l2.65-10.5h20.02zm-2.37 10.8l-2.39 10.88h-20.73l2.75-10.88h20.37zm-2.46 11.18l-2.48 11.28H215.8l2.85-11.28h20.74zm-2.55 11.6l-2.57 11.7h-21.51l2.96-11.7h21.12zm-2.65 12.03l-2.67 12.15H209.6l3.07-12.15h21.52zm-2.74 12.48l-2.78 12.62h-22.34l3.19-12.62h21.93zm-2.24 12.98h22.36l-2.44 13.12h-22.79l2.87-13.12zm22.96 0h22.36l-2 13.12h-22.79l2.43-13.12zm22.97 0h22.36l-1.56 13.12h-22.79l1.99-13.12zm.05-.35l1.91-12.62h21.93l-1.5 12.62h-22.34zm1.96-12.96l1.84-12.15h21.52l-1.44 12.15h-21.92zm1.89-12.48l1.77-11.7h21.12l-1.39 11.7h-21.51.01zm1.82-12.02l1.71-11.28h20.74l-1.34 11.28h-21.11zm1.76-11.58l1.65-10.88h20.38l-1.29 10.88h-20.74zm1.69-11.18l1.59-10.5h20.02l-1.25 10.5H284.3h.01zm1.63-10.78l1.54-10.14h19.68l-1.2 10.14h-20.02zm1.58-10.42l1.48-9.8h19.35l-1.16 9.8h-19.67zm1.53-10.06l1.44-9.48h19.03l-1.12 9.48h-19.35zm1.47-9.74l1.39-9.17h18.72l-1.09 9.17h-19.02zm1.43-9.41l1.34-8.88h18.42l-1.05 8.88h-18.71zm1.38-9.12l1.3-8.6h18.13l-1.02 8.6h-18.41zm1.33-8.83l1.26-8.33h17.85l-.99 8.33h-18.12zm1.3-8.55l1.22-8.08h17.57l-.96 8.08h-17.84.01zm1.25-8.29l1.19-7.83h17.31l-.93 7.83h-17.57zm1.22-8.05l1.15-7.6h17.05l-.9 7.6h-17.3zm1.18-7.8l1.12-7.38h16.8l-.88 7.38H299.6h.01zm-.46 0H282.1l1.37-7.38h16.8l-1.12 7.38zm-17.51 0h-17.05l1.62-7.38h16.8l-1.37 7.38zm-17.51 0h-17.04l1.86-7.38h16.8l-1.62 7.38zm-17.51 0h-17.05l2.11-7.38h16.8l-1.87 7.38h.01zm-.05.2l-1.93 7.6h-17.3l2.18-7.6h17.05zm-1.98 7.82l-1.99 7.83h-17.57l2.24-7.83h17.32zm-2.05 8.04l-2.05 8.08h-17.84l2.31-8.08h17.58zm-2.1 8.3l-2.11 8.33h-18.12l2.39-8.33h17.85-.01zm-2.17 8.57l-2.18 8.6h-18.41l2.46-8.6h18.13zm-2.24 8.83l-2.25 8.88h-18.71l2.54-8.88h18.42zm-2.32 9.12l-2.33 9.17h-19.02l2.63-9.17h18.72zm-2.39 9.43l-2.4 9.48h-19.34l2.72-9.48h19.03-.01zm-2.47 9.74l-2.49 9.8h-19.67l2.81-9.8h19.35zm-2.55 10.07l-2.57 10.14h-20.01l2.91-10.14h19.68-.01zm-2.64 10.43l-2.66 10.5h-20.37l3.01-10.5h20.02zm-2.74 10.8l-2.76 10.88h-20.73l3.12-10.88h20.38-.01zm-2.84 11.18l-2.86 11.28h-21.11l3.23-11.28h20.74zm-2.94 11.6l-2.97 11.7h-21.51l3.35-11.7h21.13zm-3.05 12.03l-3.08 12.15h-21.92l3.48-12.15h21.52zm-3.17 12.48l-3.2 12.62h-22.34l3.62-12.62h21.93-.01zm-3.29 12.98l-3.33 13.12h-22.79l3.76-13.12h22.36zm-3.42 13.49l-3.46 13.65H175.5l3.91-13.65h22.8zm-3.56 14.03l-3.61 14.22h-23.73l4.07-14.22h23.27zm-3.7 14.61l-3.76 14.82h-24.23l4.24-14.82h23.75zm.64 0h23.74l-3.26 14.82h-24.23l3.74-14.82h.01zm24.39 0h23.74l-2.76 14.82h-24.23l3.24-14.82h.01zm.09-.39l3.11-14.22h23.26l-2.65 14.22h-23.73.01zm3.19-14.6l2.99-13.65h22.8l-2.54 13.65h-23.25zm26.42-13.65h22.8l-2.08 13.65h-23.25l2.53-13.65zm23.42 0h22.8l-1.62 13.65h-23.25l2.07-13.65zm23.42 0h22.8l-1.16 13.65h-23.25l1.61-13.65zm.04-.37l1.54-13.12h22.35l-1.11 13.12h-22.79.01zm1.59-13.47l1.49-12.62h21.93l-1.07 12.62h-22.35zm1.52-12.96l1.43-12.15h21.52l-1.03 12.15h-21.92zm1.47-12.48l1.38-11.7h21.12l-.99 11.7h-21.51zm1.41-12.02l1.33-11.28h20.74l-.96 11.28h-21.11zm1.37-11.58l1.28-10.88h20.37l-.92 10.88h-20.73zm1.31-11.18l1.24-10.5h20.02l-.89 10.5h-20.37zm1.27-10.78l1.19-10.14h19.68l-.86 10.14H306.5zm1.23-10.42l1.15-9.8h19.35l-.83 9.8h-19.67zm1.18-10.06l1.12-9.48h19.03l-.8 9.48h-19.35zm1.15-9.74l1.08-9.17h18.72l-.78 9.17h-19.02zm1.11-9.41l1.04-8.88h18.42l-.75 8.88h-18.71zm1.07-9.12l1.01-8.6h18.13l-.73 8.6h-18.41zm1.04-8.83l.98-8.33h17.84l-.71 8.33h-18.12.01zm1-8.55l.95-8.08h17.57l-.69 8.08h-17.84.01zm.98-8.29l.92-7.83h17.31l-.66 7.83h-17.57zm.95-8.05l.89-7.6h17.05l-.64 7.6h-17.3zm.92-7.8l.87-7.38h16.8l-.63 7.38h-17.04zm.89-7.58l.84-7.17h16.56l-.61 7.17h-16.8.01zm-.46 0h-16.8l1.09-7.17h16.56l-.85 7.17zm-17.26 0h-16.8l1.33-7.17h16.56l-1.09 7.17zm-17.25 0h-16.8l1.57-7.17h16.56l-1.33 7.17zm-17.26 0h-16.8l1.81-7.17h16.56l-1.58 7.17h.01zm-17.25 0h-16.8l2.05-7.17h16.56l-1.82 7.17h.01zm-17.25 0h-16.8l2.29-7.17h16.56l-2.06 7.17h.01zm-.06.2l-2.12 7.38h-17.04l2.36-7.38h16.8zm-2.18 7.58l-2.18 7.6h-17.3l2.43-7.6h17.05zm-2.25 7.82l-2.25 7.83h-17.57l2.51-7.83h17.31zm-2.31 8.04l-2.32 8.08h-17.84l2.59-8.08h17.57zm-2.38 8.3l-2.39 8.33H201.6l2.67-8.33h17.85-.01zm-2.46 8.57l-2.47 8.6h-18.41l2.75-8.6h18.13zm-2.54 8.83l-2.55 8.88h-18.71l2.84-8.88h18.42zm-2.62 9.12l-2.64 9.17h-19.02l2.94-9.17h18.72zm-2.71 9.43l-2.72 9.48h-19.34l3.04-9.48h19.03-.01zm-2.8 9.74l-2.82 9.8h-19.67l3.14-9.8h19.35zm-2.9 10.07l-2.91 10.14h-20.01l3.25-10.14h19.68-.01zm-2.99 10.43l-3.02 10.5H179.7l3.36-10.5h20.03zm-3.1 10.8l-3.13 10.88h-20.73l3.48-10.88h20.38zm-3.22 11.18l-3.24 11.28h-21.11l3.61-11.28h20.74zm-3.33 11.6l-3.36 11.7h-21.51l3.75-11.7h21.12zm-3.46 12.03l-3.49 12.15h-21.92l3.89-12.15h21.52zm-3.59 12.48l-3.63 12.62h-22.34l4.04-12.62h21.93zm-3.72 12.98l-3.77 13.12h-22.79l4.2-13.12h22.36zm-3.88 13.49l-3.92 13.65h-23.25l4.37-13.65h22.8zm-4.03 14.03l-4.09 14.22h-23.73l4.55-14.22h23.27zm-4.2 14.61l-4.26 14.82h-24.23l4.74-14.82h23.75zm-4.38 15.23l-4.44 15.45h-24.75l4.95-15.45h24.24zm.66 0h24.24l-3.92 15.45h-24.75l4.43-15.45zm24.91 0h24.24l-3.4 15.45h-24.75l3.91-15.45zm24.9 0h24.24l-2.88 15.45h-24.75l3.38-15.45h.01zm24.9 0h24.24l-2.35 15.45h-24.75l2.86-15.45zm.08-.41l2.74-14.82h23.74l-2.26 14.82h-24.23.01zm2.81-15.21l2.63-14.22h23.26l-2.17 14.22h-23.73.01zm26.53-14.22h23.26l-1.69 14.22h-23.73l2.15-14.22h.01zm23.9 0h23.26l-1.21 14.22h-23.73l1.67-14.22h.01zm23.89 0h23.26l-.73 14.22h-23.73l1.19-14.22h.01zm.03-.38l1.15-13.65h22.8l-.7 13.65h-23.25zm1.18-14.02l1.1-13.12h22.36l-.67 13.12h-22.79zm1.13-13.47l1.06-12.62h21.93l-.64 12.62H321.1zm1.09-12.96l1.02-12.15h21.52l-.62 12.15h-21.92zm1.04-12.48l.98-11.7h21.12l-.6 11.7h-21.51.01zm1.01-12.02l.95-11.28h20.74l-.58 11.28h-21.11zm.97-11.58l.91-10.88h20.38l-.56 10.88h-20.73zm.94-11.18l.88-10.5h20.02l-.54 10.5h-20.37.01zm.91-10.78l.85-10.14h19.68l-.52 10.14h-20.01zm.87-10.42l.82-9.8h19.35l-.5 9.8h-19.67zm.85-10.06l.8-9.48h19.03l-.48 9.48h-19.35zm.81-9.74l.77-9.17h18.72l-.47 9.17h-19.02zm.79-9.41l.75-8.88h18.42l-.45 8.88h-18.72zm.77-9.12l.72-8.6H350l-.44 8.6h-18.41zm.74-8.83l.7-8.33h17.85l-.43 8.33h-18.12zm.72-8.55l.68-8.08h17.57l-.41 8.08h-17.84zm.69-8.29l.66-7.83h17.31l-.4 7.83H333.3zm.68-8.05l.64-7.6h17.05l-.39 7.6h-17.3zm.66-7.8l.62-7.38h16.8l-.38 7.38h-17.04zm.63-7.58l.6-7.17h16.56l-.37 7.17h-16.8.01zm.62-7.36l.58-6.96h16.33l-.36 6.96h-16.55zm-.45 0h-16.55l.82-6.96h16.32l-.59 6.96zm-17.01 0h-16.55l1.05-6.96h16.33l-.83 6.96zm-17.01 0h-16.55l1.29-6.96h16.33l-1.06 6.96h-.01zm-17 0h-16.55l1.52-6.96h16.33l-1.3 6.96zm-17.01 0h-16.55l1.76-6.96h16.32l-1.53 6.96zm-17 0h-16.55l1.99-6.96h16.33l-1.77 6.96zm-17.01 0h-16.55l2.23-6.96h16.33l-2 6.96h-.01zm-17.01 0h-16.55l2.46-6.96h16.33l-2.24 6.96zm-.06.2l-2.3 7.17h-16.8l2.54-7.17h16.56zm-2.36 7.36l-2.37 7.38h-17.04l2.61-7.38h16.8zm-2.44 7.58l-2.44 7.6h-17.3l2.69-7.6h17.05zm-2.51 7.82l-2.51 7.83h-17.57l2.77-7.83h17.31zm-2.58 8.04l-2.59 8.08h-17.84l2.86-8.08h17.57zm-2.67 8.3l-2.68 8.33h-18.12l2.95-8.33h17.85zm-2.74 8.57l-2.76 8.6h-18.41l3.04-8.6h18.13zm-2.84 8.83l-2.85 8.88h-18.71l3.14-8.88h18.42zm-2.93 9.12l-2.94 9.17H173.3l3.25-9.17h18.72-.01zm-3.03 9.43l-3.04 9.48h-19.34l3.36-9.48h19.03-.01zm-3.13 9.74l-3.15 9.8h-19.67l3.47-9.8h19.35zm-3.23 10.07l-3.26 10.14H162.6l3.59-10.14h19.68zm-3.35 10.43l-3.37 10.5h-20.37l3.72-10.5h20.02zm-3.47 10.8l-3.49 10.88h-20.73l3.85-10.88h20.38-.01zm-3.59 11.18l-3.62 11.28h-21.11l3.99-11.28h20.74zm-3.72 11.6l-3.76 11.7h-21.51l4.14-11.7h21.13zm-3.86 12.03l-3.9 12.15h-21.92l4.3-12.15h21.52zm-4.01 12.48l-4.05 12.62h-22.34l4.47-12.62h21.93-.01zm-4.17 12.98l-4.21 13.12H132.7l4.64-13.12h22.36zm-4.33 13.49l-4.38 13.65h-23.25l4.83-13.65h22.8zm-4.51 14.03l-4.57 14.22h-23.73l5.03-14.22h23.27zm-4.69 14.61l-4.76 14.82h-24.23l5.24-14.82h23.75zm-4.89 15.23l-4.96 15.45h-24.75l5.47-15.45h24.24zm-5.1 15.89L131 343.61h-25.29l5.71-16.14h24.76zm.68 0h24.76l-4.64 16.14h-25.29l5.17-16.14zm25.43 0h24.76l-4.09 16.14h-25.29l4.62-16.14zm25.44 0h24.76l-3.55 16.14h-25.29l4.08-16.14zm25.44 0h24.76l-3 16.14h-25.29l3.53-16.14zm25.44 0h24.76l-2.46 16.14h-25.29l2.99-16.14zm25.44 0h24.76l-1.91 16.14h-25.29l2.44-16.14zm.06-.43l2.34-15.45h24.24l-1.83 15.45h-24.75zm2.4-15.87l2.24-14.82h23.74l-1.76 14.82H266.5h.01zm26.64-14.82h23.74l-1.26 14.82H291.4l1.74-14.82h.01zm24.38 0h23.74l-.76 14.82h-24.23l1.24-14.82h.01zm24.39 0h23.74l-.26 14.82h-24.23l.74-14.82h.01zm.02-.39l.71-14.22h23.26l-.25 14.22h-23.73.01zm.73-14.6l.68-13.65h22.8l-.24 13.65h-23.25.01zm.71-14.02l.66-13.12h22.36l-.23 13.12h-22.79zm.67-13.47l.63-12.62h21.93l-.22 12.62h-22.34zm.65-12.96l.61-12.15h21.52l-.21 12.15H344.7zm.63-12.48l.59-11.7h21.12l-.2 11.7h-21.51zm.6-12.02l.57-11.28h20.74l-.2 11.28h-21.11zm.58-11.58l.55-10.88h20.38l-.19 10.88h-20.74zm.56-11.18l.53-10.5h20.02l-.18 10.5h-20.37zm.55-10.78l.51-10.14h19.68l-.18 10.14h-20.01zm.52-10.42l.49-9.8h19.35l-.17 9.8h-19.67zm.5-10.06l.48-9.48h19.03l-.16 9.48h-19.35zm.49-9.74l.46-9.17h18.72l-.16 9.17h-19.02zm.47-9.41l.45-8.88h18.42l-.15 8.88H349.6zm.46-9.12l.43-8.6h18.13l-.15 8.6h-18.41zm.45-8.83l.42-8.33h17.85l-.14 8.33h-18.13zm.42-8.55l.41-8.08h17.57l-.14 8.08h-17.84zm.42-8.29l.39-7.83h17.31l-.14 7.83h-17.57.01zm.4-8.05l.38-7.6h17.05l-.13 7.6h-17.3zm.4-7.8l.37-7.38h16.8l-.13 7.38h-17.05.01zm.38-7.58l.36-7.17h16.56l-.12 7.17h-16.8zm.28-14.5h-16.32l.57-6.77h16.1l-.35 6.77zm-16.77 0h-16.32l.8-6.77h16.1l-.57 6.77h-.01zm-16.76 0h-16.32l1.03-6.77h16.1l-.8 6.77h-.01zm-16.77 0h-16.32l1.25-6.77h16.1l-1.03 6.77zm-16.76 0h-16.32l1.48-6.77h16.1l-1.26 6.77zm-16.77 0h-16.32l1.71-6.77h16.1l-1.49 6.77zm-16.76 0H235.9l1.94-6.77h16.1l-1.72 6.77zm-16.77 0h-16.32l2.17-6.77h16.1l-1.94 6.77h-.01zm-16.76 0h-16.32l2.4-6.77h16.1l-2.17 6.77h-.01zm-16.77 0H185.6l2.62-6.77h16.1l-2.4 6.77zm-.06.18l-2.47 6.96h-16.55l2.7-6.96h16.32zm-2.54 7.16l-2.54 7.17h-16.8l2.78-7.17h16.56zm-2.61 7.36l-2.62 7.38h-17.04l2.86-7.38h16.8zm-2.7 7.58l-2.7 7.6h-17.3l2.95-7.6h17.05zm-2.77 7.82l-2.78 7.83H170.9l3.04-7.83h17.31-.01zm-2.85 8.04l-2.87 8.08h-17.84l3.13-8.08h17.58zm-2.95 8.3l-2.96 8.33h-18.12l3.23-8.33h17.85zm-3.04 8.57l-3.05 8.6h-18.41l3.33-8.6h18.13zm-3.13 8.83l-3.15 8.88h-18.71l3.44-8.88h18.42zm-3.24 9.12l-3.25 9.17h-19.02l3.56-9.17h18.72-.01zm-3.34 9.43l-3.36 9.48h-19.34l3.68-9.48h19.03-.01zm-3.46 9.74l-3.48 9.8h-19.67l3.8-9.8h19.35zm-3.58 10.07l-3.6 10.14h-20.01l3.93-10.14h19.68zm-3.7 10.43l-3.73 10.5h-20.36l4.07-10.5h20.02zm-3.83 10.8l-3.86 10.88h-20.73l4.22-10.88h20.37zm-3.97 11.18l-4 11.28h-21.11l4.37-11.28h20.74zm-4.11 11.6l-4.15 11.7h-21.51l4.54-11.7h21.12zm-4.27 12.03l-4.31 12.15h-21.92l4.71-12.15h21.52zm-4.43 12.48l-4.48 12.62h-22.34l4.89-12.62h21.93zm-4.61 12.98l-4.66 13.12h-22.79l5.09-13.12h22.36zm-4.78 13.49l-4.85 13.65h-23.25l5.29-13.65h22.81zm-4.98 14.03l-5.05 14.22H98.19l5.51-14.22h23.27zm-5.19 14.61l-5.26 14.82H92.29l5.74-14.82h23.75zm-5.4 15.23l-5.48 15.45H86.15l5.99-15.45h24.24zm-5.64 15.89l-5.73 16.14H79.72l6.26-16.14h24.76zm-5.88 16.58l-5.98 16.86H73.02l6.54-16.86h25.31-.01zm.69 0h25.31l-5.41 16.86H99.59l5.97-16.86h-.01zm25.99 0h25.31l-4.84 16.86h-25.86l5.4-16.86h-.01zm26 0h25.31l-4.28 16.86h-25.86l4.83-16.86zm26 0h25.31l-3.71 16.86h-25.86l4.26-16.86zm26 0h25.31l-3.14 16.86h-25.86l3.69-16.86zm26 0h25.31l-2.57 16.86h-25.86l3.12-16.86zm25.99 0h25.31l-2 16.86h-25.86l2.55-16.86zm26 0h25.31l-1.43 16.86h-25.86l1.98-16.86zm.06-.45l1.9-16.14h24.76l-1.37 16.14h-25.29zm1.94-16.56l1.82-15.45h24.24l-1.31 15.45h-24.75zm26.72-15.46h24.24l-.79 15.45h-24.75l1.3-15.45zm24.91 0h24.24l-.27 15.45h-24.75l.78-15.45zm24.37 32.47h25.31l.28 16.86h-25.86l.28-16.86h-.01zm0-.45l.26-16.14h24.76l.27 16.14h-25.29zm.27-16.56l.25-15.45h24.24l.25 15.45h-24.75.01zm.27-15.87l.24-14.82h23.74l.24 14.82h-24.23.01zm.25-15.21l.23-14.22h23.26l.23 14.22h-23.73.01zm.24-14.6l.22-13.65h22.8l.22 13.65h-23.25.01zm.23-14.02l.22-13.12h22.35l.22 13.12h-22.79zm.22-13.47l.21-12.62h21.93l.21 12.62h-22.35zm.21-12.96l.2-12.15h21.52l.2 12.15h-21.92zm.2-12.48l.19-11.7h21.12l.19 11.7h-21.51.01zm.2-12.02l.19-11.28h20.74l.19 11.28h-21.12zm.19-11.58l.18-10.88h20.37l.18 10.88h-20.73zm.19-11.18l.17-10.5h20.02l.17 10.5H368zm.17-10.78l.17-10.14h19.68l.17 10.14h-20.02zm.17-10.42l.16-9.8h19.35l.16 9.8h-19.67zm.17-10.06l.16-9.48h19.03l.16 9.48h-19.35zm.16-9.74l.15-9.17h18.72l.15 9.17h-19.02zm.15-9.41l.15-8.88h18.42l.15 8.88h-18.72zm.15-9.12l.14-8.6h18.13l.14 8.6h-18.41zm.15-8.83l.14-8.33h17.84l.14 8.33h-18.12zm.14-8.55l.13-8.08h17.57l.13 8.08h-17.84.01zm.14-8.29l.13-7.83h17.31l.13 7.83H369.4zm17.39-37.75h16.33l.35 6.96h-16.56l-.12-6.96zm-.01-.18l-.12-6.77h16.1l.34 6.77h-16.32zm-17.21 0h-16.32l.34-6.77h16.1l-.12 6.77zm-16.41-6.95h-16.09l.55-6.58h15.87l-.34 6.58h.01zm-16.53 0h-16.09l.77-6.58h15.87l-.56 6.58h.01zm-16.53 0h-16.09l1-6.58h15.87l-.78 6.58zm-16.53 0h-16.09l1.22-6.58h15.87l-1 6.58zm-16.53 0h-16.09l1.44-6.58h15.88l-1.22 6.58h-.01zm-16.53 0h-16.09l1.66-6.58h15.87l-1.45 6.58h.01zm-16.53 0h-16.09l1.89-6.58h15.88l-1.67 6.58h-.01zm-16.53 0h-16.09l2.11-6.58h15.88l-1.89 6.58h-.01zm-16.53 0h-16.09l2.33-6.58h15.88l-2.11 6.58h-.01zm-16.53 0H188.3l2.55-6.58h15.87l-2.34 6.58h.01zm-16.53 0h-16.09l2.77-6.58h15.88l-2.56 6.58zm-.07.18l-2.63 6.77h-16.32l2.85-6.77h16.1zm-2.7 6.95l-2.71 6.96h-16.55l2.93-6.96h16.33zm-2.78 7.16l-2.78 7.17h-16.8l3.02-7.17h16.56zm-2.87 7.36l-2.87 7.38h-17.05l3.11-7.38h16.81zm-2.94 7.58l-2.95 7.6h-17.3l3.2-7.6h17.05zm-3.04 7.82l-3.04 7.83h-17.57l3.3-7.83h17.31zm-3.13 8.04l-3.14 8.08h-17.84l3.4-8.08h17.58zm-3.22 8.3l-3.24 8.33h-18.12l3.51-8.33h17.85zm-3.33 8.57l-3.34 8.6h-18.41l3.62-8.6h18.13zm-3.43 8.83l-3.45 8.88h-18.71l3.74-8.88h18.42zm-3.55 9.12l-3.56 9.17h-19.02l3.86-9.17h18.72zm-3.66 9.43l-3.68 9.48h-19.34l3.99-9.48h19.03zm-3.78 9.74l-3.81 9.8h-19.67l4.13-9.8h19.35zm-3.92 10.07l-3.94 10.14h-20.01l4.28-10.14h19.68-.01zm-4.05 10.43l-4.08 10.5h-20.37l4.43-10.5h20.02zm-4.2 10.8l-4.23 10.88h-20.73l4.59-10.88h20.38-.01zm-4.34 11.18l-4.38 11.28h-21.11l4.76-11.28h20.74-.01zm-4.51 11.6l-4.55 11.7h-21.51l4.93-11.7h21.13zm-4.67 12.03l-4.72 12.15H97.03l5.12-12.15h21.52zm-4.86 12.48l-4.91 12.62H91.56l5.32-12.62h21.93zm-5.04 12.98l-5.1 13.12H85.88l5.53-13.12h22.36zm-5.24 13.49l-5.31 13.65H79.97l5.75-13.65h22.81zm-5.46 14.03l-5.53 14.22H73.81l5.99-14.22h23.27zm-5.67 14.61l-5.76 14.82H67.41l6.24-14.82H97.4zm-5.92 15.23l-6.01 15.45H60.72l6.51-15.45h24.25zm-6.18 15.89l-6.27 16.14H53.74l6.8-16.14H85.3zm-6.44 16.58l-6.55 16.86H46.45l7.11-16.86h25.31-.01zm-6.74 17.33l-6.85 17.64H38.81l7.43-17.64h25.88zm.71 0h25.88l-6.26 17.64H66l6.84-17.64h-.01zm26.58 0h25.88l-5.66 17.64H93.17l6.24-17.64zm26.59 0h25.88l-5.07 17.64h-26.46l5.65-17.64zm26.58 0h25.88l-4.47 17.64h-26.46l5.05-17.64zm26.58 0h25.88l-3.88 17.64h-26.45l4.46-17.64h-.01zm26.58 0h25.88l-3.28 17.64h-26.46l3.86-17.64zm26.59 0h25.88l-2.69 17.64h-26.46l3.27-17.64zm26.58 0h25.88l-2.09 17.64h-26.46l2.67-17.64zm26.58 0h25.88l-1.5 17.64h-26.45l2.08-17.64h-.01zm26.58 0h25.88l-.9 17.64h-26.46l1.48-17.64zm.04-.47l1.42-16.86h25.31l-.86 16.86h-25.87zm1.46-17.31l1.35-16.14h24.76l-.82 16.14h-25.29zm26.79-16.13h24.76l-.28 16.14h-25.29l.81-16.14zm24.88 33.91h25.88l.29 17.64h-26.45l.29-17.64h-.01zm50.74-34.34h-24.75l-.27-15.45h24.24l.78 15.45zm-.8-15.87h-24.23l-.26-14.82h23.74l.74 14.82h.01zm-.76-15.21h-23.73l-.25-14.22h23.26l.71 14.22h.01zm-.74-14.6h-23.25l-.24-13.65h22.8l.69 13.65zm-.7-14.02h-22.79l-.23-13.12h22.36l.66 13.12zm-.68-13.47h-22.34l-.22-12.62h21.93l.63 12.62zm-.65-12.96h-21.92l-.21-12.15h21.52l.61 12.15zm-1.21-24.18l.59 11.7h-21.51l-.2-11.7h21.12zm-.58-11.6l.57 11.28h-21.11l-.2-11.28h20.74zm-.56-11.18l.55 10.88h-20.73l-.19-10.88h20.38-.01zm-.02-.3h-20.37l-.18-10.5h20.02l.53 10.5zm-.54-10.78h-20.01l-.18-10.14h19.68l.51 10.14zm-.52-10.42h-19.67l-.17-9.8h19.35l.49 9.8zm-.51-10.06h-19.34l-.16-9.48h19.03l.48 9.48h-.01zm-.48-9.74h-19.02l-.16-9.17h18.72l.46 9.17zm-.48-9.41h-18.71l-.15-8.88h18.42l.45 8.88h-.01zm-.45-9.12h-18.41l-.15-8.6h18.13l.43 8.6zm-.45-8.83h-18.12l-.14-8.33h17.85l.42 8.33h-.01zm-.43-8.55h-17.84l-.14-8.08h17.57l.41 8.08zm-.41-8.29h-17.57l-.14-7.83h17.31l.39 7.83h.01zm-.41-8.05h-17.3l-.13-7.6h17.05l.38 7.6zm-.39-7.8h-17.05l-.13-7.38h16.8l.37 7.38h.01zm-.38-7.58h-16.8l-.12-7.17h16.56l.36 7.17zm16.04-14.5h-16.32l-.35-6.77h16.1l.57 6.77zm-.59-6.95h-16.09l-.34-6.58h15.87l.55 6.58h.01zm-1.1-13.16l.54 6.4h-15.87l-.33-6.4h15.66zm-15.43 13.16h-16.09l-.11-6.58h15.88l.33 6.58h-.01zm-.66-13.16l.32 6.4h-15.87l-.11-6.4h15.66zm-31.74 0h15.66l.11 6.4h-15.87l.11-6.4h-.01zm-.11 6.57h15.87l.11 6.58h-16.09l.11-6.58zm-.11 6.77h16.1l.11 6.77h-16.32l.11-6.77zm-.11 6.95h16.32l.11 6.96H369.9l.11-6.96h.01zm-15.76-20.29h15.66l-.11 6.4h-15.87l.32-6.4zm-.33 6.57h15.87l-.11 6.58H353.6l.33-6.58zm-15.75-6.57h15.66l-.33 6.4h-15.87l.54-6.4zm-16.09 0h15.66l-.54 6.4h-15.87l.75-6.4zm-16.08 0h15.66l-.76 6.4h-15.87l.97-6.4zm-16.09 0h15.66l-.98 6.4h-15.87l1.19-6.4zm-16.09 0h15.66l-1.19 6.4h-15.87l1.4-6.4zm-16.08 0h15.66l-1.41 6.4h-15.87l1.62-6.4zm-16.09 0h15.66l-1.62 6.4h-15.87l1.83-6.4zm-16.09 0h15.66l-1.84 6.4h-15.87l2.05-6.4zm-16.08 0h15.66l-2.06 6.4h-15.87l2.27-6.4zm-16.09 0h15.66l-2.27 6.4h-15.87l2.48-6.4zm-16.08 0h15.66l-2.49 6.4h-15.87l2.7-6.4zm-16.09 0h15.66l-2.7 6.4h-15.87l2.91-6.4zm-2.99 6.57h15.87l-2.78 6.58h-16.09l3-6.58zm-3.08 6.77h16.1l-2.86 6.77h-16.32l3.08-6.77zm-3.17 6.95h16.33l-2.94 6.96h-16.55L152 70.7h-.01zm-3.26 7.16h16.56l-3.03 7.17h-16.8l3.26-7.17h.01zm-3.35 7.36h16.8l-3.12 7.38h-17.05l3.36-7.38h.01zm-3.45 7.58h17.05l-3.21 7.6h-17.3l3.46-7.6zm-3.56 7.82h17.31l-3.31 7.83H134.8l3.57-7.83zm-3.66 8.04h17.57l-3.41 8.08h-17.84l3.68-8.08zm-3.78 8.3h17.85l-3.52 8.33h-18.12l3.79-8.33zm-3.9 8.57h18.13l-3.63 8.6h-18.41l3.91-8.6zm-4.02 8.83h18.42l-3.75 8.88h-18.71l4.04-8.88zm-4.15 9.12h18.72l-3.87 9.17h-19.02l4.17-9.17zm-4.29 9.43h19.03l-4 9.48h-19.34l4.31-9.48zm-4.44 9.74h19.35l-4.14 9.8h-19.67l4.46-9.8zm-4.58 10.07h19.68l-4.28 10.14h-20.01l4.62-10.14h-.01zm-4.75 10.43h20.02l-4.44 10.5H96.01l4.78-10.5h.01zm-4.91 10.8h20.38l-4.6 10.88H90.94l4.95-10.88zm-5.09 11.18h20.74l-4.77 11.28H85.66l5.14-11.28zm-5.28 11.6h21.12l-4.94 11.7H80.19l5.33-11.7zm-5.48 12.03h21.52l-5.13 12.15H74.51l5.53-12.15zm-5.69 12.48h21.93l-5.33 12.62H68.61l5.75-12.62h-.01zm-5.9 12.98h22.36l-5.54 13.12H62.48l5.97-13.12zm-6.14 13.49h22.8l-5.77 13.65H56.09l6.22-13.65zm-6.39 14.03h23.26l-6.01 14.22H49.44l6.47-14.22h.01zm-6.65 14.61h23.74l-6.26 14.82H42.52l6.74-14.82h.01zm-6.94 15.23h24.24l-6.53 15.45H35.29l7.03-15.45h.01zm-7.23 15.89h24.76l-6.82 16.14H27.75l7.35-16.14zm-7.55 16.58h25.31l-7.12 16.86H19.88l7.67-16.86zm-7.89 17.33h25.88l-7.45 17.64H11.64l8.03-17.64h-.01zm10.42 36.6H3l8.41-18.47h26.47l-7.8 18.47zm27.82 0H30.82l7.78-18.47h26.47l-7.18 18.47h.01zm27.82 0H58.64l7.16-18.47h26.47l-6.55 18.47zm27.82 0H86.46L93 379.51h26.47l-5.93 18.47zm27.82 0h-27.08l5.91-18.47h26.47l-5.31 18.47h.01zm27.81 0h-27.08l5.29-18.47h26.47l-4.68 18.47zm27.82 0h-27.08l4.67-18.47h26.47l-4.06 18.47zm27.82 0h-27.08l4.04-18.47h26.47l-3.44 18.47h.01zm27.82 0h-27.08l3.42-18.47h26.47l-2.81 18.47zm27.82 0h-27.08l2.8-18.47h26.47l-2.19 18.47zm27.81 0h-27.08l2.17-18.47h26.47l-1.57 18.47h.01zm27.82 0H309l1.55-18.47h26.47l-.94 18.47zm27.82 0h-27.08l.93-18.47h26.47l-.32 18.47zm.33-18.96h-26.46l.88-17.64h25.88l-.31 17.64h.01zm.31-18.11h-25.86l.85-16.86h25.31l-.29 16.86h-.01zm.1 37.07l.3-18.47h26.47l.3 18.47h-27.08.01zm26.88-53.93h25.31l.85 16.86h-25.86l-.29-16.86h-.01zm.3 17.33h25.88l.88 17.64h-26.46l-.31-17.64h.01zm.64 36.6l-.32-18.47h26.47l.93 18.47h-27.08z" fill="#E1E1E1" stroke="#E1E1E1" stroke-width="2"/><path d="M205 64l94.5 28.5-63.5 42 177.5 68" stroke="#029DFA" stroke-width="2" stroke-linejoin="round"/><path d="M208.306 16.391h0l.003-.01c.086-.39-.085-.797-.454-.936h.001l-.014-.004c-.389-.086-.797.085-.936.454h0l-.001.003-6.25 18.75h0l-.003.01c-.086.39.085.797.454.936h-.001l.014.004c.389.086.797-.085.936-.453h0l.001-.004 6.25-18.75zm-16.177 8.566h0l-.004.004a.716.716 0 00-.225.539c0 .208.042.402.232.546l5.62 4.996c.27.267.769.277 1.006-.05.262-.309.268-.761-.052-1.036l-4.993-4.456 4.99-4.453c.326-.237.317-.732.053-1.003a.641.641 0 00-.485-.25.745.745 0 00-.515.16h0l-.002.002-5.625 5zm19.078-5h0l-.002-.003a.745.745 0 00-.515-.16.64.64 0 00-.485.25c-.264.27-.273.766.053 1.003l4.99 4.453-4.993 4.455-.001.001c-.319.275-.313.727-.052 1.035.238.328.737.318 1.007.05l5.62-4.995a.657.657 0 00.271-.546c0-.192-.097-.372-.264-.54h0l-.004-.004-5.625-5zm91.559 37.663h.001l.002-.01c.066-.286-.064-.588-.344-.69h0l-.013-.004c-.289-.062-.599.06-.705.335h0l-.002.004-4.5 13.124h0l-.002.01c-.066.287.063.589.344.691h0l.013.004c.289.062.599-.06.705-.335h0l.001-.004 4.5-13.124zm-11.691 5.963h0l-.004.004a.527.527 0 00-.171.4c0 .15.032.297.178.406l4.045 3.495c.106.102.251.15.39.146a.478.478 0 00.374-.184c.197-.227.204-.563-.041-.768l-3.568-3.096 3.565-3.093c.25-.178.241-.545.042-.746a.494.494 0 00-.369-.184.571.571 0 00-.388.118h0l-.003.002-4.05 3.5zm13.772-3.5h0l-.003-.002a.572.572 0 00-.389-.118.493.493 0 00-.368.184c-.199.2-.208.568.042.746l3.565 3.093-3.567 3.095h-.001c-.245.206-.238.542-.041.769.092.123.234.18.373.184a.546.546 0 00.391-.146l4.045-3.495a.487.487 0 00.206-.407c0-.146-.076-.28-.199-.4h0l-.004-.003-4.05-3.5zM238.766 97.62h.001l.002-.01c.066-.286-.064-.588-.344-.69h0l-.013-.004c-.289-.062-.599.06-.705.335h0l-.002.004-4.5 13.124h0l-.002.011c-.066.286.063.588.344.69v.001l.013.003c.289.062.599-.06.705-.335h0l.001-.004 4.5-13.124zm-11.691 5.963v-.001l-.004.005a.526.526 0 00-.171.399c0 .151.032.298.178.407l4.045 3.495c.106.102.251.15.39.146a.476.476 0 00.374-.184c.197-.227.204-.563-.041-.768l-3.568-3.096 3.565-3.093c.25-.178.241-.545.042-.746a.495.495 0 00-.369-.184.57.57 0 00-.388.118h0l-.003.002-4.05 3.5zm13.772-3.5h0l-.003-.002a.57.57 0 00-.389-.118.495.495 0 00-.368.184c-.199.201-.208.568.042.746l3.565 3.093-3.567 3.095-.001.001c-.245.205-.238.541-.041.768.092.123.234.18.373.184a.545.545 0 00.391-.146l4.045-3.495a.488.488 0 00.206-.407c0-.146-.076-.28-.199-.399v-.001l-.004-.003-4.05-3.5z" fill="#029DFA" stroke="#029DFA" stroke-width=".2"/><path d="M229 25c0 11-14.625 30.375-21.125 38.5-1.5 1.875-4.375 1.875-5.875 0-6.5-8.125-21-27.5-21-38.5 0-13.25 10.625-24 24-24 13.25 0 24 10.75 24 24zM205 3c-12.25 0-22 9.875-22 22 0 2.375.75 5.375 2.125 8.75 1.5 3.375 3.375 7 5.625 10.5 4.375 7.125 9.625 14 12.75 18 .75.875 2.125.875 2.875 0 3.125-4 8.375-10.875 12.75-18 2.25-3.5 4.125-7.125 5.625-10.5 1.375-3.375 2.25-6.375 2.25-8.75 0-12.125-9.875-22-22-22zm49 102c0 8.25-10.969 22.781-15.844 28.875a2.828 2.828 0 01-4.406 0C228.875 127.781 218 113.25 218 105c0-9.938 7.969-18 18-18 9.938 0 18 8.063 18 18zm-18-16.5c-9.188 0-16.5 7.406-16.5 16.5 0 1.781.562 4.031 1.594 6.562 1.125 2.532 2.531 5.25 4.218 7.876 3.282 5.343 7.219 10.5 9.563 13.5a1.427 1.427 0 002.156 0c2.344-3 6.281-8.157 9.563-13.5 1.687-2.626 3.094-5.344 4.218-7.876 1.032-2.531 1.688-4.781 1.688-6.562 0-9.094-7.406-16.5-16.5-16.5zM318 63c0 8.25-10.969 22.781-15.844 28.875a2.828 2.828 0 01-4.406 0C292.875 85.781 282 71.25 282 63c0-9.938 7.969-18 18-18 9.938 0 18 8.063 18 18zm-18-16.5c-9.188 0-16.5 7.406-16.5 16.5 0 1.781.562 4.031 1.594 6.563 1.125 2.53 2.531 5.25 4.218 7.874 3.282 5.344 7.219 10.5 9.563 13.5a1.427 1.427 0 002.156 0c2.344-3 6.281-8.156 9.563-13.5 1.687-2.624 3.094-5.343 4.218-7.874C315.844 67.03 316.5 64.78 316.5 63c0-9.094-7.406-16.5-16.5-16.5z" fill="#FB7E3D"/></svg>