<svg width="81" height="80" fill="none" xmlns="http://www.w3.org/2000/svg"><path d="M64.5 28c-5.625 0-10-4.375-10-10 0-5.5 4.375-10 10-10 5.5 0 10 4.5 10 10 0 5.625-4.5 10-10 10zm0-18c-4.5 0-8 3.625-8 8 0 4.5 3.5 8 8 8 4.375 0 8-3.5 8-8 0-4.375-3.625-8-8-8zm-48 18c-5.625 0-10-4.375-10-10 0-5.5 4.375-10 10-10 5.5 0 10 4.5 10 10 0 5.625-4.5 10-10 10zm0-18c-4.5 0-8 3.625-8 8 0 4.5 3.5 8 8 8 4.375 0 8-3.5 8-8 0-4.375-3.625-8-8-8zm23.875 38c-7.125 0-13-5.75-12.875-13 0-7.125 5.75-13 12.875-13s13 5.875 13 13c0 7.25-5.75 13-13 13zm0-24c-6 0-11 5-11 11 0 6.125 5 11 11 11 6.125 0 11-4.875 11-11 0-6-4.875-11-11-11zM25.5 45c0 .625-.5 1-1 1H3.375C1.75 46 .5 44.75.5 43c0-6 4.625-11 10.375-11H20.5c.625 0 1.375.125 2.125.375.625.125.875.625.75 1.125s-.625.875-1.125.75C21.625 34.125 21 34 20.5 34h-9.625C6.25 34 2.5 38.125 2.5 43c0 .625.375 1 .875 1H24.5c.5 0 1 .5 1 1zM70 32c5.375 0 9.875 4.375 10.375 10 .125.5-.375 1-1 1-.5 0-.875-.375-1-.875C78 37.625 74.375 34 70 34h-9.125c-.625 0-1.5.125-2.25.25-.5.125-1-.125-1.125-.75-.125-.5.125-1 .75-1.125.75-.25 1.5-.375 2.25-.375H70zM49.5 70c.5 0 1 .5 1 1 0 .625-.5 1-1 1H20c-2 0-3.5-1.375-3.5-3.25C16.5 59.5 24.375 52 34.25 52h10.875c.625 0 1 .5 1 1.125 0 .5-.375.875-1 .875H34.25C25.5 54 18.5 60.625 18.5 68.75c0 .75.625 1.25 1.5 1.25h29.5z" fill="#FB7E3D"/><path fill-rule="evenodd" clip-rule="evenodd" d="M78.348 58.625l-1.75-1.125v-2.875l1.75-1c.625-.375 1-1.25.75-2a14.618 14.618 0 00-3.25-5.75c-.625-.625-1.5-.75-2.125-.25l-1.75 1c-.875-.625-1.625-1.125-2.625-1.5V43c0-.875-.5-1.5-1.25-1.625-2.25-.5-4.5-.5-6.625 0-.75.125-1.25.75-1.25 1.625v2c-1 .375-1.75.875-2.625 1.5l-1.75-1c-.625-.5-1.5-.25-2.125.25a14.618 14.618 0 00-3.25 5.75c-.25.75.125 1.625.75 2l1.75 1c-.125 1-.125 2 0 2.875l-1.75 1.125c-.625.375-1 1.125-.75 1.875a14.618 14.618 0 003.25 5.75c.625.625 1.375.75 2.125.375l1.75-1.125c.875.625 1.625 1.125 2.625 1.5V69c0 .75.5 1.5 1.25 1.625 1.125.25 2.25.375 3.375.375s2.125 0 3.25-.25c.75-.25 1.25-.875 1.25-1.625V67c1-.375 1.75-.875 2.625-1.5l1.75 1c.625.5 1.5.375 2.125-.25a14.618 14.618 0 003.25-5.75c.25-.75-.125-1.625-.75-1.875zm-3.875 6.125c1.25-1.375 2.125-2.875 2.625-4.625l-2.75-1.625.033-.166c.237-1.177.444-2.201-.033-4.709L77.098 52c-.5-1.75-1.375-3.25-2.625-4.625L71.723 49c-1.977-1.648-3.086-2.04-4.004-2.366-.127-.045-.25-.089-.371-.134v-3.125c-1.75-.375-3.5-.375-5.125 0V46.5l-.252.091c-1.237.446-2.13.768-4.123 2.409l-2.75-1.625c-1.25 1.375-2.125 2.875-2.625 4.625l2.75 1.625c-.5 2.75-.25 3.875 0 4.875l-2.75 1.625c.5 1.625 1.375 3.25 2.625 4.625l2.75-1.625c1.977 1.647 3.085 2.04 4.003 2.366.127.045.25.088.372.134v3.125c1.75.375 3.5.375 5.125 0v-3.125l.251-.091c1.237-.446 2.131-.768 4.124-2.409l2.75 1.625zM70.848 56c0-3.25-2.75-6-6-6-3.375 0-6 2.75-6 6 0 3.375 2.625 6 6 6 3.25 0 6-2.625 6-6zm-2 0c0 2.25-1.875 4-4 4-2.25 0-4-1.75-4-4 0-2.125 1.75-4 4-4 2.125 0 4 1.875 4 4z" fill="#029DFA"/></svg>