<svg width="81" height="80" fill="none" xmlns="http://www.w3.org/2000/svg"><path d="M61.508 25.992c0 3.875-3.25 7-7 7-3.875 0-7-3.125-7-7 0-3.75 3.125-7 7-7 3.75 0 7 3.25 7 7zm-7 5c2.75 0 5-2.125 5-5 0-2.75-2.25-5-5-5-2.875 0-5 2.25-5 5 0 2.875 2.125 5 5 5zm-1.875 34.625l-11.875 5.875c-2 1-4.25-.5-4.25-2.625V54.992c0-2.875-1.25-5.625-3.25-7.75-2.125-2-4.875-3.25-7.75-3.25H11.633c-2.125 0-3.625-2.25-2.625-4.25l5.875-11.875c1.25-2.375 3.625-3.875 6.25-3.875h12c10.5-15.75 26.5-16.875 35.75-15.25a3.449 3.449 0 012.875 2.875c1.625 9.25.5 25.25-15.25 35.75v12c0 2.625-1.5 5-3.875 6.25zm-14.375-12.75c15.75-3.875 24-11.25 28.125-18.875 4.375-7.875 4.375-16.375 3.375-22.125-.125-.625-.5-1-1.125-1.125-5.75-1-14.25-1-22.125 3.375-7.625 4.125-15 12.375-18.875 28.125 2.625.375 5.125 1.75 7 3.625s3.125 4.375 3.625 7zm.25 16c0 .75.75 1.125 1.375.875l11.75-5.875c1.75-.875 2.875-2.625 2.875-4.5v-10.75c-4.375 2.5-9.625 4.625-16.125 6.25l.125.125v13.875zM25.633 41.992c1.625-6.375 3.75-11.625 6.25-16h-10.75c-1.875 0-3.625 1.125-4.5 2.875l-5.875 11.75c-.25.625.125 1.375.875 1.375h14z" fill="#FB7E3D"/><path fill-rule="evenodd" clip-rule="evenodd" d="M30.31 64.69c-6.124 6.25-20.75 5.25-20.75 5.25s-1-14.625 5.126-20.75c4.375-4.25 11.375-4.25 15.625 0s4.25 11.25 0 15.5zM16.187 50.564c3.5-3.5 9.25-3.5 12.75 0s3.5 9.25 0 12.75c-2.625 2.624-7.25 3.874-11.5 4.374-2.125.25-4.125.25-5.5.25h-.375a.405.405 0 00-.028-.124c-.028-.084-.056-.167.028-.25 0-1.376 0-3.376.25-5.5.5-4.25 1.75-8.875 4.375-11.5z" fill="#029DFA"/></svg>